<svg xmlns="http://www.w3.org/2000/svg" viewBox="0 0 512 512"><defs><style>.cls-1{fill:none;}.cls-2{fill:#777d88;}.cls-3{fill:#abb2bf;}.cls-4{fill:#d9e021;}</style></defs><title>discuss</title><g id="Layer_2" data-name="Layer 2"><g id="Layer_1-2" data-name="Layer 1"><rect class="cls-1" width="512" height="512"/><path class="cls-2" d="M105.09,445.42a57,57,0,0,0,47.72,56.28V512H314.6V501.7a57.07,57.07,0,0,0,47.73-56.28V216.59H105.09ZM123.71,235.2H273v60.35h18.61V235.2h52.15V445.42a38.44,38.44,0,0,1-38.41,38.42H296v9.54H171.43v-9.54h-9.31a38.43,38.43,0,0,1-38.41-38.42ZM161,377.47H142.34V259.4H161Zm0,45.79H142.34V393.63H161ZM426,299.07v73.17a41.12,41.12,0,0,1-41.12,41.13h-9.55V394.75h9.55a22.5,22.5,0,0,0,22.5-22.51V299.07a22.52,22.52,0,0,0-22.5-22.51h-9.55V258h9.55A41.12,41.12,0,0,1,426,299.07Z"/><rect class="cls-3" x="248.76" y="295.55" width="67.02" height="81.92"/><path class="cls-4" d="M353,38.18a19.09,19.09,0,0,0,19.09-19.09h0A19.09,19.09,0,0,0,353,0H124.51a19.09,19.09,0,0,0-19.09,19.09h0a19.1,19.1,0,0,0,19.09,19.09h19.55a12.72,12.72,0,0,1,12.73,12.73h0a12.72,12.72,0,0,1-12.73,12.72H82.15A31.84,31.84,0,0,0,50.33,95.45h0a31.82,31.82,0,0,0,31.82,31.81H213.08A12.74,12.74,0,0,1,225.8,140h0a12.72,12.72,0,0,1-12.72,12.73h-8.51a23.85,23.85,0,0,0-23.86,23.86h0a23.85,23.85,0,0,0,23.86,23.86h96a23.87,23.87,0,0,0,23.87-23.86h0a23.87,23.87,0,0,0-23.87-23.86H273A12.74,12.74,0,0,1,260.26,140h0A12.75,12.75,0,0,1,273,127.26H429.85a31.8,31.8,0,0,0,31.82-31.81h0a31.82,31.82,0,0,0-31.82-31.82H237.48a12.7,12.7,0,0,1-12.72-12.72h0a12.7,12.7,0,0,1,12.72-12.73Z"/></g></g></svg>