<svg xmlns="http://www.w3.org/2000/svg" viewBox="0 0 512 512"><defs><style>.cls-1{fill:#d9e021;}.cls-2{fill:#777d88;}.cls-3{fill:none;}</style></defs><title>happy</title><g id="Layer_2" data-name="Layer 2"><g id="Layer_1-2" data-name="Layer 1"><path class="cls-1" d="M334.2,50.33A89.4,89.4,0,0,0,270.57,76.7L256,91.24,241.44,76.69A90,90,0,1,0,114.29,204.05l91.11,91.12L256,194l50.6,101.22L397.84,204A90,90,0,0,0,334.2,50.33Z"/><path class="cls-2" d="M472,114A140.67,140.67,0,0,0,334.19,0,139,139,0,0,0,256,23.76,138.92,138.92,0,0,0,177.81,0,140.66,140.66,0,0,0,40,114H20.34v52.61h52.6V114H58.65A122.34,122.34,0,0,1,177.81,18.28a120.9,120.9,0,0,1,72.73,24L256,46.36l5.46-4.07a120.89,120.89,0,0,1,72.73-24A122.34,122.34,0,0,1,453.35,114h-14.3v52.61h52.61V114ZM54.66,148.34h-16v-16h16Zm418.71,0h-16v-16h16ZM146.15,393.21h14.79a52.72,52.72,0,0,1,51.85,43.47H194.23V455h9.86v57H307.9V455h9.88V436.68H299.21a52.73,52.73,0,0,1,51.85-43.47h14.79L256,173.52ZM256,335.9a9.87,9.87,0,1,1-9.86,9.88A9.89,9.89,0,0,1,256,335.9ZM222.37,493.71V455h67.25v38.74Zm58.33-57H231.31A71.09,71.09,0,0,0,175,376.34l71.83-143.65v86.46a28.17,28.17,0,1,0,18.29,0V232.69L337,376.34A71.08,71.08,0,0,0,280.7,436.68Z"/><rect class="cls-3" width="512" height="512"/></g></g></svg>