<svg xmlns="http://www.w3.org/2000/svg" viewBox="0 0 400 400"><defs><style>.cls-1,.cls-6{fill:#21252b;}.cls-2,.cls-4{fill:#161b23;}.cls-3,.cls-5{fill:#0c1119;}.cls-4,.cls-5,.cls-6{fill-rule:evenodd;}</style></defs><title>hero-pattern-small</title><g id="Layer_2" data-name="Layer 2"><g id="Layer_1-2" data-name="Layer 1"><rect class="cls-1" x="150" y="350" width="50" height="50"/><rect class="cls-2" x="150" y="300" width="50" height="50"/><rect class="cls-3" x="150" y="300" width="50" height="25"/><rect class="cls-2" x="100" y="300" width="50" height="50"/><circle class="cls-3" cx="125" cy="325" r="10"/><polygon class="cls-4" points="150 400 100 350 100 400 150 400"/><polygon class="cls-5" points="100 350 150 400 150 350 100 350"/><rect class="cls-3" x="200" y="300" width="100" height="100"/><path class="cls-2" d="M200,367v-4a63,63,0,0,0,63-63h4A67,67,0,0,1,200,367Z"/><path class="cls-2" d="M200,347v-4a43,43,0,0,0,43-43h4A47,47,0,0,1,200,347Z"/><path class="cls-2" d="M200,387v-4a83,83,0,0,0,83-83h4A87,87,0,0,1,200,387Z"/><path class="cls-2" d="M200,327v-4a23,23,0,0,0,23-23h4A27,27,0,0,1,200,327Z"/><rect class="cls-1" x="300" y="300" width="100" height="100"/><polygon class="cls-3" points="350 300 300 350 350 400 350 300"/><polygon class="cls-2" points="400 300 350 350 400 400 400 300"/><rect class="cls-3" y="300" width="100" height="100"/><circle class="cls-1" cx="68.9" cy="331.06" r="7.5"/><path class="cls-4" d="M68.9,319.81a11.25,11.25,0,1,1-11.25,11.25A11.25,11.25,0,0,1,68.9,319.81Zm-7.5,11.25a7.5,7.5,0,1,0,7.5-7.5A7.5,7.5,0,0,0,61.4,331.06Z"/><circle class="cls-1" cx="31.4" cy="331.06" r="7.5"/><path class="cls-4" d="M31.4,319.81a11.25,11.25,0,1,1-11.25,11.25A11.25,11.25,0,0,1,31.4,319.81Zm-7.5,11.25a7.5,7.5,0,1,0,7.5-7.5A7.5,7.5,0,0,0,23.9,331.06Z"/><circle class="cls-1" cx="68.9" cy="368.56" r="7.5"/><path class="cls-4" d="M68.9,357.31a11.25,11.25,0,1,1-11.25,11.25A11.25,11.25,0,0,1,68.9,357.31Zm-7.5,11.25a7.5,7.5,0,1,0,7.5-7.5A7.5,7.5,0,0,0,61.4,368.56Z"/><circle class="cls-1" cx="31.4" cy="368.56" r="7.5"/><path class="cls-4" d="M31.4,357.31a11.25,11.25,0,1,1-11.25,11.25A11.25,11.25,0,0,1,31.4,357.31Zm-7.5,11.25a7.5,7.5,0,1,0,7.5-7.5A7.5,7.5,0,0,0,23.9,368.56Z"/><rect class="cls-2" x="350" y="250" width="50" height="50"/><polygon class="cls-5" points="350 300 300 250 300 300 350 300"/><polygon class="cls-6" points="300 250 350 300 350 250 300 250"/><rect class="cls-2" y="150" width="50" height="50"/><rect class="cls-2" x="49.99" y="150" width="50" height="50"/><polygon class="cls-2" points="290 0 280 0 270 0 260 0 250 0 200 0 200 50 200 60 200 70 200 80 200 90 200 100 300 100 300 0 290 0"/><polygon class="cls-4" points="200 100 100 200 200 200 200 100"/><polygon class="cls-5" points="100 100 0 0 0 100 100 100"/><polygon class="cls-4" points="0 0 100 100 100 0 0 0"/><polygon class="cls-4" points="0 0 100 100 100 0 0 0"/><polygon class="cls-5" points="25 25 75 75 75 25 25 25"/><polygon class="cls-6" points="75 75 25 25 25 75 75 75"/><rect class="cls-1" x="350" y="200" width="50" height="50" transform="translate(750 450) rotate(180)"/><rect class="cls-3" x="350" y="225" width="50" height="25" transform="translate(750 475) rotate(180)"/><rect class="cls-3" x="300" y="200" width="50" height="50"/><circle class="cls-2" cx="325" cy="225" r="10"/><rect class="cls-2" x="200" y="200" width="100" height="100"/><path class="cls-1" d="M200,237v-4a67,67,0,0,1,67,67h-4A63,63,0,0,0,200,237Z"/><path class="cls-1" d="M200,277v-4a27,27,0,0,1,27,27h-4A23,23,0,0,0,200,277Z"/><path class="cls-1" d="M200,217v-4a87,87,0,0,1,87,87h-4A83,83,0,0,0,200,217Z"/><path class="cls-1" d="M200,257v-4a47,47,0,0,1,47,47h-4A43,43,0,0,0,200,257Z"/><rect class="cls-2" x="300" y="100" width="100" height="100" transform="translate(500 -200) rotate(90)"/><rect class="cls-3" x="325" y="125" width="100" height="50" transform="translate(525 -225) rotate(90)"/><circle class="cls-1" cx="350" cy="150" r="30"/><path class="cls-3" d="M323,150a26.88,26.88,0,0,0,7.91,19.09l38.18-38.18A27,27,0,0,0,323,150Z"/><path class="cls-4" d="M350,177a27,27,0,0,0,19.09-46.09l-38.18,38.18A26.88,26.88,0,0,0,350,177Z"/><polygon class="cls-3" points="200 100 100 100 150 150 200 100"/><polygon class="cls-1" points="100 100 100 200 150 150 100 100"/><rect class="cls-3" x="200" y="100" width="100" height="100"/><path class="cls-1" d="M250,150a50,50,0,0,0-50-50A50,50,0,0,0,250,150Z"/><path class="cls-2" d="M250,150a50,50,0,0,0,50-50A50,50,0,0,0,250,150Z"/><path class="cls-2" d="M250,150a50,50,0,0,0-50,50A50,50,0,0,0,250,150Z"/><path class="cls-1" d="M250,150a50,50,0,0,0,50,50A50,50,0,0,0,250,150Z"/><rect class="cls-2" y="200" width="100" height="100"/><path class="cls-3" d="M50,225.48A25,25,0,0,1,75,250h25V200H0v50H25A25,25,0,0,1,50,225.48Z"/><path class="cls-5" d="M75,250.48c0-.16,0-.32,0-.48H25c0,.16,0,.32,0,.48a25,25,0,1,0,50,0Z"/><path class="cls-6" d="M50,225.48A25,25,0,0,0,25,250H75A25,25,0,0,0,50,225.48Z"/><rect class="cls-1" x="100" width="100" height="100" transform="translate(100 200) rotate(-90)"/><rect class="cls-3" x="145" y="45" width="10" height="100" transform="translate(55 245) rotate(-90)"/><rect class="cls-2" x="145" y="30" width="10" height="100" transform="translate(70 230) rotate(-90)"/><rect class="cls-3" x="145" y="15" width="10" height="100" transform="translate(85 215) rotate(-90)"/><rect class="cls-2" x="145" width="10" height="100" transform="translate(100 200) rotate(-90)"/><rect class="cls-3" x="145" y="-15" width="10" height="100" transform="translate(115 185) rotate(-90)"/><rect class="cls-2" x="145" y="-30" width="10" height="100" transform="translate(130 170) rotate(-90)"/><rect class="cls-3" x="145" y="-45" width="10" height="100" transform="translate(145 155) rotate(-90)"/><rect class="cls-2" x="100" y="200" width="100" height="100" transform="translate(400 100) rotate(90)"/><rect class="cls-1" x="61.5" y="238.5" width="100" height="23" transform="translate(361.5 138.5) rotate(90)"/><rect class="cls-1" x="85" y="242" width="100" height="16" transform="translate(385 115) rotate(90)"/><rect class="cls-1" x="105" y="242" width="100" height="16" transform="translate(405 95) rotate(90)"/><rect class="cls-1" x="125" y="242" width="100" height="16" transform="translate(425 75) rotate(90)"/><rect class="cls-1" x="143.5" y="243.5" width="100" height="13" transform="translate(443.5 56.5) rotate(90)"/><rect class="cls-3" x="89" y="246" width="100" height="8" transform="translate(389 111) rotate(90)"/><rect class="cls-3" x="69.5" y="246" width="100" height="8" transform="translate(369.5 130.5) rotate(90)"/><rect class="cls-3" x="109" y="246" width="100" height="8" transform="translate(409 91) rotate(90)"/><rect class="cls-3" x="129" y="246" width="100" height="8" transform="translate(429 71) rotate(90)"/><path class="cls-3" d="M0,150H0a50,50,0,0,1,50,50v0a0,0,0,0,1,0,0H0a0,0,0,0,1,0,0V150A0,0,0,0,1,0,150Z"/><path class="cls-1" d="M50,150h0a50,50,0,0,1,50,50v0a0,0,0,0,1,0,0H50a0,0,0,0,1,0,0V150A0,0,0,0,1,50,150Z"/><path class="cls-6" d="M210,0H200c1,55.4,45.39,100,100,100V90C250.85,90,210.93,49.86,210,0Z"/><path class="cls-3" d="M300,90V80c-43.69,0-79.18-35.68-80-80H210C210.93,49.86,250.85,90,300,90Z"/><path class="cls-6" d="M300,80V70c-38.23,0-69.28-31.22-70-70H220C220.82,44.32,256.31,80,300,80Z"/><path class="cls-6" d="M300,60V50c-27.3,0-49.48-22.3-50-50H240C240.62,33.24,267.23,60,300,60Z"/><path class="cls-3" d="M300,50V0H250C250.52,27.7,272.7,50,300,50Z"/><polygon class="cls-3" points="310 0 320 0 330 0 340 0 350 0 400 0 400 50 400 60 400 70 400 80 400 90 400 100 300 100 300 0 310 0"/><path class="cls-4" d="M390,0h10c-1,55.4-45.39,100-100,100V90C349.15,90,389.07,49.86,390,0Z"/><path class="cls-1" d="M300,90V80c43.69,0,79.18-35.68,80-80h10C389.07,49.86,349.15,90,300,90Z"/><path class="cls-4" d="M300,80V70c38.23,0,69.28-31.22,70-70h10C379.18,44.32,343.69,80,300,80Z"/><path class="cls-4" d="M300,60V50c27.3,0,49.48-22.3,50-50h10C359.38,33.24,332.77,60,300,60Z"/><path class="cls-1" d="M300,50V0h50C349.48,27.7,327.3,50,300,50Z"/><rect class="cls-3" x="50" y="100" width="50" height="50"/><rect class="cls-1" x="62.5" y="112.5" width="25" height="25" transform="translate(110.36 -16.42) rotate(45)"/><rect class="cls-2" x="0.01" y="100" width="50" height="50"/><rect class="cls-1" x="0.01" y="100" width="25" height="25"/><rect class="cls-1" x="25.01" y="125" width="25" height="25"/></g></g></svg>