<svg xmlns="http://www.w3.org/2000/svg" viewBox="0 0 540 540"><defs><style>.cls-1,.cls-10,.cls-13,.cls-4{fill:none;}.cls-2{fill:#161b23;}.cls-3{fill:#777d88;}.cls-13,.cls-4{stroke:#dde4f1;}.cls-4{stroke-linecap:round;stroke-linejoin:round;stroke-width:1.26px;}.cls-5{fill:#abb2bf;}.cls-6{fill:#0c1119;}.cls-7{fill:#2c313c;}.cls-8{fill:#21252b;}.cls-9{fill:#636974;}.cls-10{stroke:#d9e021;stroke-width:0.42px;}.cls-10,.cls-13{stroke-miterlimit:10;}.cls-11,.cls-12,.cls-23{fill:#fff;}.cls-11,.cls-22{opacity:0.2;}.cls-12{opacity:0.35;}.cls-13{stroke-width:0.21px;}.cls-14{fill:#282c34;}.cls-15{fill:#b9be00;}.cls-16,.cls-22{fill:#d9e021;}.cls-17{fill:#a5aa00;}.cls-18{fill:#dde4f1;}.cls-19{fill:#7d8200;}.cls-20{fill:#919600;}.cls-21{fill:#696e00;}.cls-23{opacity:0.5;}</style></defs><title>isometric</title><g id="Layer_2" data-name="Layer 2"><g id="Layer_3" data-name="Layer 3"><rect class="cls-1" width="540" height="540"/><polygon class="cls-2" points="478.3 288.56 447.75 270.92 302.76 354.66 333.29 372.28 478.3 288.56"/><polygon class="cls-3" points="455.39 306.2 455.38 301.79 333.29 372.28 337.11 374.49 455.39 306.2"/><polygon class="cls-2" points="172.88 429.67 203.34 447.3 260.73 414.17 230.22 396.55 172.88 429.67"/><polyline class="cls-4" points="191.85 246.69 199.49 242.28 180.39 231.26 222.4 207"/><path class="cls-5" d="M229,271.54h0v-2.82l-4.95-.65-64.78-37.4a4,4,0,0,0-3.64,0l-23.8,13.8H128v2.83h0a1.26,1.26,0,0,0,.75,1l68.92,39.79a4,4,0,0,0,3.64,0l26.91-15.53a1.29,1.29,0,0,0,.75-1h0Z"/><path class="cls-5" d="M403.33,151.4l-.44-1.88c-8.22,8.58-2.9,24-2.9,24l1.52-1.5C400.52,168.27,398.57,158.39,403.33,151.4Z"/><path class="cls-3" d="M403.33,151.4c-4.76,7-2.81,16.87-1.82,20.6l5.44-5.39Z"/><path class="cls-5" d="M425,151.4l.44-1.88c8.22,8.58,2.9,24,2.9,24l-1.52-1.5C427.8,168.27,429.76,158.39,425,151.4Z"/><path class="cls-3" d="M425,151.4c4.77,7,2.81,16.87,1.82,20.6l-5.44-5.39Z"/><path class="cls-6" d="M417.2,288.56h30.55l3-1.83s-.63-10.72-.63-10.93-6.36-2.56-6.36-2.56Z"/><polygon class="cls-7" points="335.03 351.4 338.85 353.6 350.31 346.99 346.49 344.79 335.03 351.4"/><polygon class="cls-7" points="357.95 338.16 361.77 340.37 373.23 333.75 369.41 331.55 357.95 338.16"/><path class="cls-8" d="M383,414.14l-51.61,29.8a19.1,19.1,0,0,1-19.07,0L192,374.48a7.64,7.64,0,0,1,0-13.24l55.33-31.95a11.54,11.54,0,0,1,11.51,0L383,401A7.62,7.62,0,0,1,383,414.14Z"/><polygon class="cls-5" points="172.88 429.67 172.88 434.07 203.35 451.71 203.34 447.3 172.88 429.67"/><path class="cls-6" d="M157.7,362.44c0,7.31-10.27,13.24-22.93,13.24a38.11,38.11,0,0,1-7.8-.79,30.89,30.89,0,0,1-3.82-1c-6.77-2.3-11.31-6.55-11.31-11.42a8.26,8.26,0,0,1,.18-1.65c.9-4.16,5.15-7.73,11.13-9.76a31.38,31.38,0,0,1,3.82-1,37.43,37.43,0,0,1,7.8-.79c11.69,0,21.33,5.05,22.75,11.58A8.26,8.26,0,0,1,157.7,362.44Z"/><path class="cls-3" d="M157.52,360.79c-.91-4.2-5.22-7.78-11.28-9.81a37.81,37.81,0,0,0-22.93,0c-6.07,2-10.38,5.61-11.28,9.81a7.59,7.59,0,0,0-.19,1.65,8.91,8.91,0,0,0,2.25,5.73,20.23,20.23,0,0,1,9.22-5.74,37.81,37.81,0,0,1,22.93,0,20.3,20.3,0,0,1,9.21,5.74,8.91,8.91,0,0,0,2.25-5.73A8.26,8.26,0,0,0,157.52,360.79Z"/><polygon class="cls-1" points="84.99 237.84 46.87 259.85 58.34 266.47 81.23 279.69 85.24 277.37 84.99 237.84"/><path class="cls-8" d="M268.05,127.48a30.12,30.12,0,0,0-30.12,0L30.38,247.31A17,17,0,0,0,23,268.18h0a16.76,16.76,0,0,0,7.39,8.62l5,2.91L58.3,292.92l3.83,2.21,3.81,2.2,3.83,2.21,4,2.3,3.83,2.21,21.3,12.3,16.49,9.52a15.69,15.69,0,0,1,5.24,4.9l0,0a15.83,15.83,0,0,1,2.66,8.8v34.3c.25.09.5.16.76.24l.07,0,.63.19.47.12h0l.72.18.9.2.09,0a38.19,38.19,0,0,0,7.8.79,36.42,36.42,0,0,0,11.47-1.77V338.6a37.06,37.06,0,0,0-18.53-32.08l-27.2-15.7-3.83-2.22-4-2.29-3.83-2.21-3.81-2.2-3.83-2.21L58.34,266.47l-11.47-6.62,38.12-22,3.82-2.2,156.72-90.49a14.92,14.92,0,0,1,14.93,0l110.91,64,19.1-11Z"/><polygon class="cls-9" points="333.29 372.28 260.73 414.17 264.55 416.38 337.11 374.49 333.29 372.28"/><path class="cls-2" d="M228.26,216.85l-30.73,17.74a1.11,1.11,0,0,0,0,2.1l26.91,15.54a4,4,0,0,0,3.64,0l30.72-17.74a1.11,1.11,0,0,0,0-2.1l-26.9-15.54A4,4,0,0,0,228.26,216.85Z"/><path class="cls-2" d="M262.49,141.91a19,19,0,0,0-19,0L46.77,255.48h0a6.75,6.75,0,0,1,5.35.55h0l.66.39L245.5,145.16a15,15,0,0,1,15,0l110.89,64,3.83-2.2Z"/><polygon class="cls-6" points="226.26 129.81 226.26 196.08 310.27 244.46 310.25 178.33 226.26 129.81"/><polygon class="cls-2" points="210.98 129.81 210.98 196.08 302.63 248.87 302.63 182.73 210.98 129.81"/><path class="cls-10" d="M195.71,310.6l42-24.26a7.66,7.66,0,0,1,7.61,0l9.57,5.53a11.44,11.44,0,0,0,11.43,0l38.22-22.06a11.44,11.44,0,0,0,5.71-9.9V218a7.61,7.61,0,0,0-3.8-6.59l-15.29-8.83"/><path class="cls-10" d="M188.07,328.24l15.28-8.82a7.59,7.59,0,0,0,3.8-6.61h0A7.6,7.6,0,0,1,211,306.2l26.78-15.44a7.61,7.61,0,0,1,7.6,0l11.49,6.63a7.61,7.61,0,0,0,7.61,0l45.85-26.47a7.61,7.61,0,0,0,3.8-6.59V215.78a7.61,7.61,0,0,0-3.8-6.59l-19.11-11"/><path class="cls-10" d="M291.18,193.75,314.11,207a7.61,7.61,0,0,1,3.8,6.58v53a7.6,7.6,0,0,1-3.8,6.58L272,297.4a7.61,7.61,0,0,0,0,13.18l7.73,4.46a7.61,7.61,0,0,1,0,13.18l-95.52,55.14"/><path class="cls-10" d="M199.53,295.17l2.05-1.18a7.6,7.6,0,0,1,3.8-1h11.2a7.71,7.71,0,0,0,3.81-1l17.34-10a7.61,7.61,0,0,1,7.61,0l11.49,6.64a7.59,7.59,0,0,0,7.6,0l38.22-22.07a7.6,7.6,0,0,0,3.81-6.59V220.19a7.6,7.6,0,0,0-3.81-6.59l-15.29-8.83"/><path class="cls-3" d="M289.93,262.75l.45-.24,3.43-2.15a2.46,2.46,0,0,0,1.19-2.07V191a7.36,7.36,0,0,0-3.31-5.74L199,131.72h0a2.46,2.46,0,0,0-2.41,0l-3.66,2-.49,1.28a8.2,8.2,0,0,0,.1.85l6.3,35.46a14,14,0,0,0,3.41,6.44l86.17,84A7.4,7.4,0,0,0,289.93,262.75Z"/><path class="cls-5" d="M191.89,135.84v67.31a7.3,7.3,0,0,0,3.31,5.74l92.67,53.5c1.83,1.06,3.31.2,3.31-1.91V193.17a7.32,7.32,0,0,0-3.31-5.74l-92.67-53.5C193.37,132.87,191.89,133.73,191.89,135.84Z"/><polygon class="cls-3" points="195.71 138.63 195.71 204.9 287.36 257.69 287.36 191.55 195.71 138.63"/><path class="cls-11" d="M177,140.47v67.31a7.34,7.34,0,0,0,3.32,5.74L273,267c1.83,1.06,3.31.2,3.31-1.91V197.79a7.3,7.3,0,0,0-3.31-5.73L180.3,138.55C178.47,137.5,177,138.35,177,140.47Z"/><path class="cls-12" d="M276.28,201.79v-4a7.3,7.3,0,0,0-3.31-5.73l-5.26-3Z"/><path class="cls-12" d="M276.28,243.83V219.31L248.57,178l-26.92-15.54Z"/><path class="cls-12" d="M202.54,151.39l-17.29-10,82,122.31L273,267c1.83,1.06,3.31.2,3.31-1.91v-3.73Z"/><path class="cls-12" d="M177,193v14.75a7.34,7.34,0,0,0,3.32,5.74l17,9.82Z"/><path class="cls-12" d="M259.62,259.31,178.39,138.16c-.84.2-1.4,1-1.4,2.31v45.58l28,41.7Z"/><path class="cls-13" d="M177,140.47v67.32a7.3,7.3,0,0,0,3.31,5.73L273,267c1.83,1.06,3.31.2,3.31-1.91V197.8a7.33,7.33,0,0,0-3.31-5.74l-92.67-53.5C178.47,137.5,177,138.36,177,140.47Z"/><polygon class="cls-7" points="233.9 226.82 222.44 233.44 233.9 240.05 245.36 233.44 233.9 226.82"/><polygon class="cls-14" points="222.44 259.89 222.44 233.44 233.9 240.05 233.9 266.51 222.44 259.89"/><path class="cls-15" d="M237.2,232.16a5,5,0,0,0-3.3-1,4.89,4.89,0,0,0-3.34,1.09l-.48.05v1c0,1.17,1.71,2.12,3.82,2.12s3.81-1,3.81-2.12v-1Z"/><ellipse class="cls-16" cx="233.9" cy="232.25" rx="3.82" ry="2.12"/><polygon class="cls-2" points="245.36 233.44 245.35 259.89 233.9 266.51 233.9 240.05 245.36 233.44"/><polygon class="cls-7" points="249.17 226.82 237.71 233.44 249.17 240.05 260.63 233.44 249.17 226.82"/><polygon class="cls-14" points="237.72 268.71 237.72 233.44 249.17 240.05 249.17 275.33 237.72 268.71"/><path class="cls-2" d="M127,337.77v37.12l-.09,0-.9-.2-.72-.18h0l-.47-.12-.63-.19-.07,0-.76-.24-.15-.05V339.24a15.39,15.39,0,0,0-2.51-8.43l0,0a15.22,15.22,0,0,0-5.17-4.88l-16.56-9.54L35.41,279.71l-5-2.91A16.76,16.76,0,0,1,23,268.18l95.73,55.3A16.49,16.49,0,0,1,127,337.77Z"/><path class="cls-15" d="M252.47,232.16a5.69,5.69,0,0,0-6.63,0l-.48.06v1c0,1.17,1.71,2.12,3.81,2.12s3.82-1,3.82-2.12v-1Z"/><ellipse class="cls-16" cx="249.17" cy="232.25" rx="3.82" ry="2.12"/><path class="cls-17" d="M109.47,339.37l-1-.37-.17.15a9.93,9.93,0,0,0-3.11-2.66L87.45,326.3c-5.64-3.23-14.77-3.22-20.4,0l-2.53,1.46a10.15,10.15,0,0,0-2.88,2.37l-1.33.1v3.65h0c.11,2,1.51,4.05,4.22,5.6l17.93,10.26c5.64,3.23,14.76,3.19,20.38-.08l2.42-1.42c2.69-1.57,4.08-3.6,4.19-5.65h0Z"/><path class="cls-16" d="M105.27,345.16l-2.42,1.41c-5.62,3.28-14.74,3.32-20.38.09L64.54,336.4c-5.64-3.23-5.65-8.48,0-11.73l2.53-1.46c5.63-3.25,14.76-3.26,20.4,0l17.77,10.19C110.86,336.6,110.88,341.88,105.27,345.16Z"/><path class="cls-5" d="M101.33,335.92c-1.76-1.68-5-2.81-8.79-2.81s-7.17,1.17-8.9,2.9l-1.29.16v2.58c0,3.12,4.56,5.65,10.19,5.65s10.18-2.53,10.18-5.65v-2.58Z"/><ellipse class="cls-18" cx="92.54" cy="336.17" rx="10.18" ry="5.65"/><path class="cls-2" d="M64.16,313.23l-1-.37L63,313a10,10,0,0,0-3.1-2.65L42.15,300.16c-5.64-3.23-14.78-3.22-20.41,0l-2.52,1.46A10.15,10.15,0,0,0,16.34,304l-1.34.1v3.65h0c.11,2,1.52,4.05,4.23,5.6l17.92,10.26c5.64,3.23,14.77,3.19,20.38-.08L60,322.14c2.69-1.57,4.09-3.6,4.19-5.65h0Z"/><path class="cls-14" d="M60,319l-2.42,1.41c-5.61,3.28-14.74,3.32-20.38.09L19.24,310.26c-5.64-3.23-5.65-8.48,0-11.73l2.52-1.46c5.63-3.25,14.77-3.27,20.41,0l17.77,10.19C65.56,310.46,65.58,315.74,60,319Z"/><path class="cls-5" d="M40.33,301.86c-1.76-1.68-5-2.81-8.79-2.81s-7.16,1.17-8.9,2.91l-1.28.15v2.59c0,3.11,4.55,5.64,10.18,5.64s10.18-2.53,10.18-5.64v-2.59Z"/><ellipse class="cls-18" cx="31.54" cy="302.11" rx="10.18" ry="5.65"/><polygon class="cls-2" points="260.63 233.44 260.63 268.71 249.17 275.33 249.17 240.05 260.63 233.44"/><ellipse class="cls-10" cx="191.9" cy="312.8" rx="5.52" ry="3.06"/><ellipse class="cls-10" cx="195.71" cy="297.38" rx="5.52" ry="3.06"/><ellipse class="cls-10" cx="184.25" cy="330.45" rx="5.52" ry="3.06"/><ellipse class="cls-10" cx="180.43" cy="385.57" rx="5.52" ry="3.06"/><polygon class="cls-6" points="302.76 354.66 230.22 396.55 260.73 414.17 333.29 372.28 302.76 354.66"/><polygon class="cls-14" points="247.21 402.06 251.03 404.26 262.48 397.65 258.66 395.44 247.21 402.06"/><path class="cls-3" d="M386.76,385.49l-1.81-.35a7.89,7.89,0,0,0-2-1.65L258.83,311.83a11.49,11.49,0,0,0-11.51,0L192,343.78a7.47,7.47,0,0,0-2.51,2.31l-1.32-.27v4.71h0A7.56,7.56,0,0,0,192,357l120.29,69.45a19.05,19.05,0,0,0,19.07,0L383,396.68a7.55,7.55,0,0,0,3.78-7.15Z"/><path class="cls-5" d="M383,392.1l-51.61,29.79a19.05,19.05,0,0,1-19.07,0L192,352.44a7.64,7.64,0,0,1,0-13.24l55.33-31.95a11.49,11.49,0,0,1,11.51,0L383,378.91A7.62,7.62,0,0,1,383,392.1Z"/><polygon class="cls-18" points="195.7 350.08 260.62 312.6 375.19 378.74 310.26 416.22 195.7 350.08"/><path class="cls-3" d="M235.82,320.41l.17.11a1.11,1.11,0,0,1,0,2.1l-15.45,8.92a4,4,0,0,1-3.64,0l-.18-.1a1.12,1.12,0,0,1,0-2.11l15.46-8.92A4,4,0,0,1,235.82,320.41Z"/><ellipse class="cls-3" cx="350.57" cy="402.03" rx="5.52" ry="3.06"/><polygon class="cls-8" points="417.2 288.56 447.75 270.92 421.02 255.49 405.74 264.31 417.2 288.56"/><polygon class="cls-7" points="426.57 298.47 430.39 300.67 441.85 294.06 438.03 291.85 426.57 298.47"/><polygon class="cls-7" points="380.86 324.94 384.67 327.14 396.13 320.53 392.31 318.32 380.86 324.94"/><polygon class="cls-7" points="403.64 311.71 407.46 313.91 418.92 307.3 415.1 305.09 403.64 311.71"/><path class="cls-3" d="M371,329.26a1.89,1.89,0,0,0,.77,1.68l9.82,5.71a1.89,1.89,0,0,1-.77-1.68.19.19,0,0,1,0-.08,5.66,5.66,0,0,1,2.57-4.36l-9.82-5.7a5.6,5.6,0,0,0-2.56,4.36Z"/><path class="cls-3" d="M386,332a5.67,5.67,0,0,1-2.57,4.44l-.07,0c-1.36.79-2.46.14-2.5-1.51a.19.19,0,0,1,0-.08,5.66,5.66,0,0,1,2.57-4.36C384.82,329.71,386,330.38,386,332Zm-2.57,2.81a2.54,2.54,0,0,0,1.15-2c0-.73-.52-1-1.16-.66a2.56,2.56,0,0,0-1.15,2c0,.73.53,1,1.16.66Z"/><path class="cls-18" d="M383.4,332.16a2.56,2.56,0,0,0-1.15,2c0,.73.53,1,1.16.66a2.54,2.54,0,0,0,1.15-2C384.56,332.09,384,331.8,383.4,332.16Z"/><path class="cls-3" d="M358.94,336.24a1.92,1.92,0,0,0,.78,1.68l9.82,5.7a1.88,1.88,0,0,1-.78-1.68v-.07a5.6,5.6,0,0,1,2.56-4.36l-9.82-5.71a5.6,5.6,0,0,0-2.56,4.36Z"/><path class="cls-18" d="M371.32,339.14a2.51,2.51,0,0,0-1.14,2c0,.73.52,1,1.15.66a2.54,2.54,0,0,0,1.15-2C372.48,339.07,372,338.77,371.32,339.14Z"/><path class="cls-3" d="M373.9,339a5.65,5.65,0,0,1-2.56,4.44l-.08,0c-1.35.78-2.45.13-2.5-1.52v-.07a5.6,5.6,0,0,1,2.56-4.36C372.74,336.69,373.89,337.35,373.9,339Zm-2.57,2.81a2.54,2.54,0,0,0,1.15-2c0-.72-.52-1-1.16-.65a2.51,2.51,0,0,0-1.14,2c0,.73.52,1,1.15.66Z"/><path class="cls-5" d="M388.84,324.69l-17.08,9.87v-1l0-7.17-9.81-5.7-5.91,3.4a3.65,3.65,0,0,0-1.43,2.32l-1,4.59-.55.66a3.53,3.53,0,0,0-.75,2.12l0,4.48,9.81,5.71c0,1,.56,1.52,1.24,1.12l1.43-.82,2.89-1.67a8,8,0,0,1,3.63-6.28c2-1.16,3.64-.22,3.64,2.08l4.81-2.78a8,8,0,0,1,3.62-6.27c2-1.16,3.64-.23,3.65,2.08l1.82-1.05Zm-19,8.95L366,335.88a.88.88,0,0,1-1.07,0,1.28,1.28,0,0,1-.23-1.22l.59-2.79a3,3,0,0,1,1.29-1.88l3.28-1.89c.74-.43,1.34-.08,1.35.77v2.45A2.93,2.93,0,0,1,369.83,333.64Z"/><path class="cls-18" d="M369.81,328.12c.74-.42,1.35-.08,1.35.77v2.45a3,3,0,0,1-1.35,2.33L366,335.9a.88.88,0,0,1-1.08,0,1.32,1.32,0,0,1-.23-1.22l.59-2.8a3,3,0,0,1,1.29-1.87Zm-5.95,2.75-8.66-5-.9,4.84,8.67,5Z"/><path class="cls-18" d="M371.32,336.28a8,8,0,0,0-3.63,6.28l1.07-.62v-.07a5.6,5.6,0,0,1,2.56-4.36c1.42-.82,2.57-.16,2.58,1.47l1.06-.62C375,336.06,373.33,335.12,371.32,336.28Z"/><path class="cls-18" d="M383.39,329.31a8,8,0,0,0-3.62,6.27l1.07-.61a.19.19,0,0,1,0-.08,5.66,5.66,0,0,1,2.57-4.36c1.42-.82,2.57-.15,2.58,1.47l1.06-.61C387,329.08,385.4,328.15,383.39,329.31Z"/><path class="cls-3" d="M352.8,339.4l9.81,5.7a1.31,1.31,0,0,1-.48-1.17l-9.81-5.71A1.32,1.32,0,0,0,352.8,339.4Z"/><path class="cls-16" d="M361.61,339.7l-.62.37a1.47,1.47,0,0,0-.67,1.15v.85a.48.48,0,0,0,.2.44l-2.23-1.3a.47.47,0,0,1-.2-.43v-.85a1.47,1.47,0,0,1,.67-1.16l.62-.36Zm-8.76-4.81-.62.36a1.47,1.47,0,0,0-.67,1.16v.85a.47.47,0,0,0,.2.43L354,339a.48.48,0,0,1-.2-.44v-.85a1.49,1.49,0,0,1,.67-1.16l.63-.36Z"/><path class="cls-17" d="M361.61,339.7v2.4l-.63.36c-.37.22-.67,0-.67-.39v-.85a1.47,1.47,0,0,1,.67-1.15Zm-7.15-3.16a1.49,1.49,0,0,0-.67,1.16v.85c0,.43.3.61.68.39l.62-.36v-2.4Z"/><polygon class="cls-18" points="371.75 333.52 371.76 334.56 388.84 324.69 388.84 323.65 386.28 325.13 384 326.45 381.44 327.93 379.16 329.25 376.6 330.72 374.31 332.04 371.75 333.52"/><polygon class="cls-14" points="371.72 321.77 361.9 316.06 361.92 320.65 371.73 326.35 371.72 321.77"/><polygon class="cls-8" points="378.99 306.2 376.43 307.67 374.15 308.99 371.59 310.47 369.31 311.79 366.75 313.27 364.46 314.58 361.9 316.06 371.72 321.77 374.28 320.29 376.56 318.97 379.12 317.49 381.41 316.18 383.96 314.7 386.25 313.38 388.81 311.9 378.99 306.2"/><polygon class="cls-2" points="388.81 311.9 386.25 313.38 383.96 314.7 381.41 316.18 379.12 317.49 376.56 318.97 374.28 320.29 371.72 321.77 371.73 326.35 371.75 333.52 374.31 332.04 376.6 330.72 379.15 329.25 381.44 327.93 381.44 327.93 384 326.45 386.28 325.13 388.84 323.65 388.84 324.69 388.81 311.9"/><polygon class="cls-2" points="520.31 250.83 474.48 277.53 474.48 321.63 520.31 295.17 520.31 250.83"/><polygon class="cls-8" points="409.56 187.14 520.31 250.83 474.48 277.53 363.74 213.59 409.56 187.14"/><path class="cls-14" d="M474.48,277.53,363.74,213.59v44.1l53.46,30.87V264c0-3.47,2.46-4.89,5.46-3.16l19.63,11.34a12.11,12.11,0,0,1,5.46,9.45V306.2h0l26.73,15.43Z"/><path class="cls-5" d="M525,261.07c0-4.14-2.58-9-5.76-10.81a4.61,4.61,0,0,0-2.47-.69c-.3-6.39-4.27-13.62-9.14-16.43a7.82,7.82,0,0,0-3.32-1.1c-1.52-5.88-5.27-11.58-9.66-14.11-2.64-1.52-5.07-1.62-6.9-.56h0l-2.45,1.41.41.64a11.23,11.23,0,0,0-1.44,5.54h0c-2-1.17-3.87-1.22-5.25-.36h0l-2.34,1.35.64.64a9.19,9.19,0,0,0-.79,4c0,5.55,3.47,12,7.75,14.52l35,20.16,0,0c0,.27-.07.53-.07.55s1.53,1.08,1.53,1.08l2.26-1.3.15-.09h0C524.3,264.75,525,263.22,525,261.07Z"/><path class="cls-18" d="M516.78,251.68a4.61,4.61,0,0,0-2.47-.69c-.3-6.39-4.27-13.62-9.14-16.43a7.82,7.82,0,0,0-3.32-1.1c-1.52-5.87-5.27-11.58-9.66-14.1-2.65-1.53-5.06-1.64-6.89-.58-2.06,1.19-3.38,3.84-3.49,7.6h0c-4.27-2.46-7.74,0-7.74,5.6s3.47,12.05,7.74,14.52l35,20.16c3.18,1.83,5.76,0,5.76-4.16S520,253.52,516.78,251.68Z"/><path class="cls-5" d="M356.09,132.68c0-4.13-2.58-9-5.76-10.8a4.64,4.64,0,0,0-2.48-.69c-.29-6.4-4.27-13.62-9.13-16.43a7.9,7.9,0,0,0-3.33-1.1c-1.52-5.88-5.27-11.58-9.65-14.11-2.65-1.52-5.07-1.62-6.9-.56h0l-2.46,1.41.42.64a11,11,0,0,0-1.44,5.53h0c-2-1.17-3.87-1.22-5.25-.36h0l-2.35,1.35.65.64a9,9,0,0,0-.79,4c0,5.56,3.47,12.06,7.74,14.52l35,20.17,0,0c0,.27-.06.52-.06.55s1.53,1.08,1.53,1.08l2.26-1.3.14-.09,0,0h0C355.38,136.37,356.09,134.84,356.09,132.68Z"/><path class="cls-18" d="M347.87,123.3a4.64,4.64,0,0,0-2.48-.69c-.29-6.39-4.27-13.62-9.13-16.43a7.9,7.9,0,0,0-3.33-1.1c-1.52-5.88-5.27-11.58-9.65-14.11-2.65-1.52-5.06-1.63-6.9-.57-2.05,1.19-3.37,3.84-3.48,7.6h0c-4.27-2.47-7.74,0-7.74,5.59s3.47,12.06,7.74,14.52l35,20.17c3.18,1.83,5.76,0,5.76-4.17S351.05,125.14,347.87,123.3Z"/><path class="cls-5" d="M451.69,337.07l-11.58-6.68-11.62,6.71c-2.23,0-3.65,0-3.65,0v2.15L440.12,348l15.27-8.81v-2.15Z"/><polygon class="cls-3" points="455.39 337.06 440.12 345.88 440.12 348.02 455.39 339.21 455.39 337.06"/><polygon class="cls-16" points="440.12 317.67 440.12 287.69 452.33 310.61 440.12 317.67"/><polygon class="cls-15" points="427.9 310.61 440.12 317.67 440.12 287.69 427.9 310.61"/><polygon class="cls-8" points="424.84 337.06 440.12 345.88 455.39 337.06 440.12 328.25 424.84 337.06"/><path class="cls-5" d="M443.17,337.06h0a6.07,6.07,0,0,1-6.11,0h0V330h6.11Z"/><polygon class="cls-17" points="440.12 324.72 453.86 316.78 450.81 311.49 440.12 317.67 440.12 324.72"/><polygon class="cls-19" points="440.12 331.77 453.86 323.84 450.81 318.55 440.12 324.72 440.12 331.77"/><polygon class="cls-20" points="440.12 324.72 426.37 316.78 429.43 311.49 440.12 317.67 440.12 324.72"/><polygon class="cls-21" points="440.12 331.77 426.37 323.84 429.43 318.55 440.12 324.72 440.12 331.77"/><path class="cls-5" d="M428.78,350.31l-11.58-6.69-11.62,6.71c-2.23,0-3.65,0-3.65,0v2.14l15.27,8.82,15.27-8.82V350.3Z"/><polygon class="cls-3" points="432.48 350.3 417.2 359.12 417.2 361.26 432.47 352.44 432.48 350.3"/><polygon class="cls-16" points="417.22 330.9 417.22 300.92 429.43 323.84 417.22 330.9"/><polygon class="cls-15" points="405 323.84 417.22 330.9 417.22 300.92 405 323.84"/><polygon class="cls-8" points="401.94 350.3 417.22 359.11 432.49 350.3 417.21 341.48 401.94 350.3"/><path class="cls-5" d="M420.27,350.3h0a6.12,6.12,0,0,1-6.11,0h0v-7.06h6.11Z"/><polygon class="cls-17" points="417.22 337.95 430.96 330.01 427.91 324.73 417.22 330.9 417.22 337.95"/><polygon class="cls-19" points="417.22 345 430.96 337.07 427.91 331.78 417.22 337.95 417.22 345"/><polygon class="cls-20" points="417.22 337.95 403.47 330.01 406.53 324.73 417.22 330.9 417.22 337.95"/><polygon class="cls-21" points="417.22 345 403.47 337.07 406.53 331.78 417.22 337.95 417.22 345"/><polygon class="cls-7" points="201.49 428.53 205.31 430.73 216.77 424.12 212.95 421.91 201.49 428.53"/><polygon class="cls-7" points="224.28 415.3 228.1 417.5 239.56 410.89 235.74 408.68 224.28 415.3"/><path class="cls-3" d="M413.38,227.93c-12,0-21.87-5.34-22.84-12.13a6.71,6.71,0,0,0-.09,1.1c0,7.31,10.27,13.24,22.93,13.24s22.93-5.93,22.93-13.24a8,8,0,0,0-.08-1.1C435.25,222.59,425.4,227.93,413.38,227.93Z"/><path class="cls-5" d="M413.38,227.93c12,0,21.87-5.34,22.85-12.13a8,8,0,0,0,.08-1.1,7.61,7.61,0,0,0-.18-1.66c-1.41-6.53-11.06-11.58-22.75-11.58s-21.33,5-22.74,11.58a7.61,7.61,0,0,0-.19,1.66,6.71,6.71,0,0,0,.09,1.1C391.51,222.59,401.36,227.93,413.38,227.93Z"/><path class="cls-17" d="M240.14,151.77l-33-19a3.79,3.79,0,0,0-3.77,0h0l0,0h0l-3.81,2.17-.38,4.41,2.29,0v25.38a7.67,7.67,0,0,0,3.83,6.65L232,186.75l3.33,1.93-.66.52,3.82,4.17,3.68-2.1.1-.06.06,0h0a2.42,2.42,0,0,0,1.13-2.06V157.5A6.63,6.63,0,0,0,240.14,151.77Z"/><path class="cls-16" d="M236.32,154l-33-19a3.81,3.81,0,0,0-5.72,3.31v28.64a7.68,7.68,0,0,0,3.83,6.65L211,179l7,16.09a1.06,1.06,0,0,0,1.77.28l6.54-7.55,1.91,1.09,7.77,4.49a2.46,2.46,0,0,0,3.69-2.13V159.68A6.61,6.61,0,0,0,236.32,154Z"/><path class="cls-2" d="M214.4,160.23a6.49,6.49,0,0,0-2.9-5,2.08,2.08,0,0,0-2.08-.24h0l-2.21,1.17,1,.79.41.17a6.61,6.61,0,0,0,2.51,4.4L211,162l.59,1,1.9-1,.09-.05,0,0h0A2,2,0,0,0,214.4,160.23Z"/><ellipse class="cls-7" cx="209.41" cy="159.58" rx="2.32" ry="4.09" transform="matrix(0.85, -0.52, 0.52, 0.85, -52.4, 131.77)"/><path class="cls-2" d="M223,165.15a6.49,6.49,0,0,0-2.9-5,2.11,2.11,0,0,0-2.08-.25h0l-2.22,1.17,1,.79.41.17a6.61,6.61,0,0,0,2.51,4.4l-.1.51.58,1,1.9-1,.09,0,0,0h0A2,2,0,0,0,223,165.15Z"/><ellipse class="cls-7" cx="217.97" cy="164.5" rx="2.32" ry="4.09" transform="translate(-53.71 136.92) rotate(-31.24)"/><path class="cls-2" d="M231.46,170.28a6.14,6.14,0,0,0-2.75-4.73,2,2,0,0,0-2-.23h0l-2.09,1.1.94.75.39.16a6.33,6.33,0,0,0,2.37,4.17l-.09.47.55,1,1.8-.93.08,0,0,0h0A1.83,1.83,0,0,0,231.46,170.28Z"/><ellipse class="cls-7" cx="226.74" cy="169.67" rx="2.2" ry="3.87" transform="translate(-55.12 142.22) rotate(-31.24)"/><path class="cls-5" d="M60.68,261h0Z"/><path class="cls-5" d="M100.93,315.94c.31-7.13,5.83-15.74,12.33-19.24,2.9-1.56,5.5-1.84,7.47-1l-7.25-4.22h0c-2-1.26-5-1.16-8.26.62-6.49,3.5-12,12.11-12.32,19.24-.14,3.39.93,5.82,2.78,7.08h0l.14.08a3.79,3.79,0,0,0,.34.2l7.35,4.19h0C101.77,321.59,100.79,319.21,100.93,315.94Z"/><path class="cls-3" d="M109.22,322.32c-1.43-.82-2.33-2.53-2.34-5,0-5.1,3.63-11.4,8.17-14.07,2.57-1.51,4.88-1.54,6.4-.35l2.91,1.68c0-.43.09-.87.11-1.29.14-3.19-.8-5.55-2.45-6.86h0a5.62,5.62,0,0,0-1.28-.74c-2-.81-4.57-.53-7.47,1-6.5,3.5-12,12.11-12.33,19.24-.14,3.27.84,5.65,2.57,6.94s4.3,1.47,7.2.3l-1.48-.86Z"/><path class="cls-5" d="M275.94,152.76c.26-5.94,4.86-13.13,10.28-16,2.42-1.3,4.59-1.53,6.24-.86l-6-3.52h0c-1.69-1.05-4.13-1-6.89.52-5.42,2.92-10,10.1-10.28,16-.12,2.83.77,4.86,2.32,5.91h0l.11.07.29.16,6.13,3.5h0C276.64,157.48,275.82,155.49,275.94,152.76Z"/><path class="cls-3" d="M282.86,158.09c-1.2-.69-1.95-2.11-2-4.18,0-4.26,3-9.51,6.82-11.74,2.14-1.26,4.07-1.28,5.33-.29l2.43,1.4a9.83,9.83,0,0,0,.09-1.08c.12-2.66-.66-4.62-2-5.72h0a4.68,4.68,0,0,0-1.06-.62c-1.65-.67-3.82-.44-6.24.86-5.42,2.92-10,10.11-10.28,16-.12,2.73.7,4.72,2.14,5.8s3.59,1.22,6,.24l-1.23-.71Z"/><path class="cls-5" d="M108.61,223c-.26-5.95-4.86-13.14-10.28-16-2.42-1.3-4.59-1.53-6.24-.86l6-3.52h0c1.69-1.05,4.13-1,6.89.52,5.42,2.92,10,10.11,10.28,16.05.12,2.83-.77,4.86-2.32,5.91h0l-.11.07-.29.16-6.13,3.5h0C107.91,227.72,108.73,225.73,108.61,223Z"/><path class="cls-3" d="M101.69,228.33c1.2-.68,2-2.11,2-4.18,0-4.25-3-9.51-6.82-11.74-2.15-1.26-4.07-1.28-5.33-.29l-2.43,1.41c0-.37-.08-.73-.1-1.08-.11-2.67.67-4.63,2-5.72h0a4.33,4.33,0,0,1,1.06-.62c1.65-.67,3.82-.44,6.24.86,5.42,2.91,10,10.1,10.28,16,.12,2.72-.7,4.71-2.14,5.79s-3.59,1.22-6,.25l1.23-.72Z"/><path class="cls-5" d="M332.14,185.22c.25-5.95,4.86-13.14,10.28-16.05,2.42-1.31,4.59-1.54,6.23-.86l-6-3.52h0c-1.7-1-4.13-1-6.89.52-5.42,2.92-10,10.1-10.28,16.05-.12,2.83.77,4.86,2.31,5.91h0l.12.07a2.69,2.69,0,0,0,.29.16l6.13,3.5h0C332.84,189.93,332,187.94,332.14,185.22Z"/><path class="cls-3" d="M339.05,190.54c-1.19-.69-1.94-2.11-1.95-4.18,0-4.25,3-9.51,6.82-11.74,2.14-1.26,4.06-1.28,5.33-.29l2.43,1.4c0-.36.08-.72.09-1.08.12-2.66-.66-4.62-2-5.71h0a4.09,4.09,0,0,0-1.07-.62c-1.64-.68-3.81-.45-6.23.86-5.42,2.91-10,10.1-10.28,16.05-.12,2.72.7,4.71,2.14,5.79s3.58,1.22,6,.24l-1.24-.71Z"/><path class="cls-17" d="M415.38,169.72a12.43,12.43,0,0,1-2.44,0c-.5-.05-1.12-.13-1.76-.23-.38-.06-.76-.12-1.13-.2-2.06,3.07-4.48,11,4.11,26.45,8.59-15.48,6.17-23.38,4.12-26.45-.38.08-.76.14-1.14.2C416.5,169.59,415.89,169.67,415.38,169.72Z"/><path class="cls-16" d="M414.16,184.26c-4.79-8.06-3.68-13-3-14.77.64.1,1.26.18,1.76.23a12.43,12.43,0,0,0,2.44,0c.51-.05,1.12-.13,1.76-.23C417.84,171.26,419,176.2,414.16,184.26Z"/><path class="cls-2" d="M418.21,166.32c-.86.1-1.69.18-2.38.23a20.08,20.08,0,0,1-3.29,0c-.68-.05-1.51-.13-2.37-.23l-1.53-.22a19.47,19.47,0,0,1-2-.4c.27.87.56,1.74.86,2.63a5.37,5.37,0,0,0,2.52,1c.37.08.75.14,1.13.2.64.1,1.26.18,1.76.23a12.43,12.43,0,0,0,2.44,0c.51-.05,1.12-.13,1.76-.23.38-.06.76-.12,1.14-.2a5.37,5.37,0,0,0,2.51-1c.3-.88.58-1.75.86-2.61-.56.14-1.22.27-1.91.38Z"/><path class="cls-18" d="M423.29,124.37a11.66,11.66,0,0,1-18.1-.41c-3.37,8.16-5,21.35,1.48,41.74a19.47,19.47,0,0,0,2,.4l1.53.22c.86.1,1.69.18,2.37.23a20.08,20.08,0,0,0,3.29,0c.69-.05,1.52-.13,2.38-.23l1.53-.22c.69-.11,1.35-.24,1.91-.38C428,145.66,426.55,132.56,423.29,124.37Z"/><path class="cls-3" d="M414.41,127.58a11.44,11.44,0,0,1-8.89-4.38l-.33.76a11.66,11.66,0,0,0,18.1.41c-.1-.26-.21-.52-.32-.77A11.42,11.42,0,0,1,414.41,127.58Z"/><circle class="cls-5" cx="414.24" cy="139.14" r="6.19"/><circle class="cls-3" cx="414.24" cy="139.14" r="5.26"/><path class="cls-3" d="M413.38,220.88c5.61,0,10.21-2.5,10.67-5.67a4.38,4.38,0,0,0,0-.51,3.39,3.39,0,0,0-.09-.78c-.66-3-5.16-5.41-10.62-5.41s-10,2.36-10.62,5.41a4,4,0,0,0-.08.78,2.92,2.92,0,0,0,0,.51C403.17,218.38,407.77,220.88,413.38,220.88Z"/><ellipse class="cls-5" cx="414.16" cy="161.36" rx="1.47" ry="12.14"/><ellipse class="cls-3" cx="414.16" cy="161.36" rx="1.05" ry="10.65"/><path class="cls-5" d="M52.13,256a6.75,6.75,0,0,0-5.35-.55,13.22,13.22,0,0,0-2.91,1.17c-6.5,3.5-12,12.11-12.32,19.24-.14,3.39.93,5.82,2.78,7.08v0l.14.08.34.19,7.35,4.2h0c-1.73-1.29-2.71-3.67-2.57-6.94.31-7.13,5.83-15.74,12.33-19.24,2.9-1.56,5.5-1.83,7.47-1l-6.59-3.83-.66-.39Z"/><path class="cls-3" d="M51.92,261.27c-6.5,3.5-12,12.11-12.33,19.24-.14,3.27.84,5.65,2.57,6.94s4.27,1.5,7.18.32l-1.47-.84h0c-1.43-.82-2.32-2.56-2.33-5,0-5.1,3.63-11.4,8.17-14.07,2.57-1.51,4.88-1.53,6.4-.35L63,269.14c0-.43.09-.86.11-1.29.13-3.19-.8-5.54-2.45-6.86h0a5.35,5.35,0,0,0-1.27-.74C57.42,259.44,54.82,259.71,51.92,261.27Z"/><path class="cls-18" d="M228.26,267.66l-69-39.82a4,4,0,0,0-3.64,0l-26.85,15.57a1.11,1.11,0,0,0,0,2.1l68.92,39.79a4,4,0,0,0,3.64,0l26.91-15.54A1.11,1.11,0,0,0,228.26,267.66Z"/><path class="cls-5" d="M180.66,257.48c.2-.11.2-.3,0-.42l-3.09-1.79a.6.6,0,0,0-.49,0L174,257c-.2.12-.2.3,0,.42l3.1,1.79a.6.6,0,0,0,.49,0Z"/><path class="cls-5" d="M185.35,260.19c.2-.11.2-.3,0-.42L182.26,258a.6.6,0,0,0-.49,0l-3.05,1.77c-.2.12-.2.3,0,.42l3.09,1.79a.6.6,0,0,0,.49,0Z"/><path class="cls-5" d="M190,262.9c.2-.11.2-.3,0-.42l-3.09-1.79a.6.6,0,0,0-.49,0l-3,1.77c-.2.11-.2.3,0,.42l3.1,1.79a.6.6,0,0,0,.49,0Z"/><path class="cls-5" d="M176,254.77c.2-.11.2-.3,0-.42l-3.1-1.79a.57.57,0,0,0-.48,0l-3.05,1.77c-.2.12-.2.3,0,.42l3.09,1.79a.56.56,0,0,0,.49,0Z"/><path class="cls-5" d="M156.46,241.51c-.2.12-.2.31,0,.43l3.09,1.79a.6.6,0,0,0,.49,0l3-1.77c.2-.12.2-.31,0-.42l-3.1-1.8a.56.56,0,0,0-.49,0Z"/><path class="cls-5" d="M194.72,265.61c.2-.12.2-.3,0-.42l-3.09-1.79a.6.6,0,0,0-.49,0l-3,1.77c-.2.11-.2.3,0,.42l3.09,1.79a.6.6,0,0,0,.49,0Z"/><path class="cls-5" d="M161.14,244.22c-.2.11-.2.3,0,.42l3.09,1.79a.6.6,0,0,0,.49,0l3.05-1.77c.2-.12.2-.3,0-.42l-3.1-1.79a.57.57,0,0,0-.48,0Z"/><path class="cls-5" d="M171.29,252.06c.2-.11.2-.3,0-.42l-3.09-1.79a.6.6,0,0,0-.49,0l-3.05,1.77c-.2.12-.2.31,0,.42l3.1,1.79a.56.56,0,0,0,.49,0Z"/><path class="cls-5" d="M166.61,249.35c.2-.11.2-.3,0-.42l-3.1-1.79a.57.57,0,0,0-.48,0L160,248.91c-.2.12-.2.31,0,.42l3.09,1.79a.56.56,0,0,0,.49,0Z"/><path class="cls-5" d="M200.79,261.88c-.21.11-.21.3,0,.42l3.09,1.79a.6.6,0,0,0,.49,0l3-1.77c.2-.12.2-.3,0-.42l-3.1-1.79a.56.56,0,0,0-.49,0Z"/><path class="cls-5" d="M165.81,246.92c-.2.12-.2.31,0,.42l3.09,1.79a.56.56,0,0,0,.49,0l3.05-1.77c.2-.11.2-.3,0-.42l-3.09-1.79a.6.6,0,0,0-.49,0Z"/><path class="cls-5" d="M196.11,259.17a.23.23,0,0,0,0,.43l3.1,1.79a.57.57,0,0,0,.48,0l3.05-1.77c.2-.12.2-.31,0-.42l-3.09-1.8a.56.56,0,0,0-.49,0Z"/><path class="cls-5" d="M191.44,256.47c-.2.12-.2.31,0,.42l3.09,1.8a.56.56,0,0,0,.49,0l3-1.76a.23.23,0,0,0,0-.43L195,254.7a.6.6,0,0,0-.49,0Z"/><path class="cls-5" d="M186.77,253.77c-.21.12-.21.3,0,.42l3.09,1.79a.6.6,0,0,0,.49,0l3.05-1.77c.2-.11.2-.3,0-.42L190.3,252a.6.6,0,0,0-.49,0Z"/><path class="cls-5" d="M205.46,264.58c-.2.12-.2.3,0,.42l3.09,1.79a.56.56,0,0,0,.49,0l3.05-1.77c.2-.11.2-.3,0-.42l-3.1-1.79a.57.57,0,0,0-.48,0Z"/><path class="cls-5" d="M205.15,266.28c.2-.12.2-.3,0-.42l-3.09-1.79a.6.6,0,0,0-.49,0l-3,1.77c-.2.11-.2.3,0,.42l3.1,1.79a.57.57,0,0,0,.48,0Z"/><path class="cls-5" d="M199.41,268.32c.2-.12.2-.3,0-.42l-3.1-1.79a.6.6,0,0,0-.49,0l-3,1.77c-.2.11-.2.3,0,.42l3.1,1.79a.6.6,0,0,0,.49,0Z"/><path class="cls-5" d="M161.92,246.64c.2-.11.2-.3,0-.42l-3.09-1.79a.6.6,0,0,0-.49,0l-3.05,1.77c-.2.12-.2.31,0,.42l3.1,1.79a.51.51,0,0,0,.48,0Z"/><path class="cls-5" d="M147.41,247l3-1.77c.2-.12.2-.31,0-.42l-8.95-5.18a.6.6,0,0,0-.49,0l-3,1.77c-.2.12-.2.3,0,.42l8.95,5.18A.6.6,0,0,0,147.41,247Z"/><path class="cls-5" d="M189,272.46l-4.12-2.39a.56.56,0,0,0-.49,0l-3.69,2.14c-.21.12-.21.31,0,.42l4.11,2.39a.56.56,0,0,0,.49,0l3.7-2.14C189.16,272.76,189.16,272.58,189,272.46Z"/><path class="cls-5" d="M146.85,250.91l-3.1-1.79a.57.57,0,0,0-.48,0l-1.28.74c-.2.12-.2.31,0,.42l3.1,1.79a.53.53,0,0,0,.49,0l1.27-.74C147.05,251.22,147.05,251,146.85,250.91Z"/><path class="cls-5" d="M150.34,250.41l-3.69,2.14c-.2.12-.2.31,0,.42l3.09,1.8a.56.56,0,0,0,.49,0l3.69-2.14c.2-.12.2-.3,0-.42l-3.09-1.79A.6.6,0,0,0,150.34,250.41Z"/><path class="cls-5" d="M182.09,251.07c-.2.11-.2.3,0,.42l3.1,1.79a.6.6,0,0,0,.49,0l3-1.77c.2-.12.2-.31,0-.42l-3.09-1.79a.53.53,0,0,0-.49,0Z"/><path class="cls-5" d="M144.62,246.82l-3.1-1.8a.56.56,0,0,0-.49,0l-3.69,2.14c-.2.12-.2.3,0,.42l3.1,1.79a.54.54,0,0,0,.48,0l3.7-2.14C144.82,247.12,144.82,246.93,144.62,246.82Z"/><path class="cls-5" d="M205.2,271.53l-3,1.77c-.2.12-.2.3,0,.42l6.57,3.8a.53.53,0,0,0,.49,0l3-1.77c.2-.11.2-.3,0-.42l-6.57-3.8A.6.6,0,0,0,205.2,271.53Z"/><path class="cls-5" d="M193.66,275.18l-3.09-1.79a.6.6,0,0,0-.49,0l-3.69,2.14a.23.23,0,0,0,0,.43l3.09,1.79a.6.6,0,0,0,.49,0l3.69-2.15C193.86,275.49,193.86,275.3,193.66,275.18Z"/><path class="cls-5" d="M170.48,249.62c-.2.12-.2.31,0,.42l3.1,1.8a.56.56,0,0,0,.49,0l3-1.76c.21-.12.21-.31,0-.43L174,247.85a.6.6,0,0,0-.49,0Z"/><path class="cls-5" d="M198.37,277.9l-3.09-1.79a.6.6,0,0,0-.49,0l-3.7,2.15c-.2.11-.2.3,0,.42l3.1,1.79a.6.6,0,0,0,.49,0l3.69-2.14A.23.23,0,0,0,198.37,277.9Z"/><path class="cls-5" d="M223,269.53l1.4-.81c.2-.12.2-.3,0-.42l-3.1-1.79a.6.6,0,0,0-.49,0l-1.39.81c-.2.12-.2.3,0,.42l3.09,1.79A.6.6,0,0,0,223,269.53Z"/><path class="cls-5" d="M184.5,257.73c-.2.12-.2.31,0,.42l3.1,1.79a.6.6,0,0,0,.49,0l3-1.77c.2-.11.2-.3,0-.42L188,256a.6.6,0,0,0-.49,0Z"/><path class="cls-5" d="M179.83,255c-.2.11-.2.3,0,.42l3.09,1.79a.6.6,0,0,0,.49,0l3.05-1.77c.2-.12.2-.3,0-.42l-3.09-1.79a.56.56,0,0,0-.49,0Z"/><path class="cls-5" d="M189.18,260.43c-.2.12-.2.31,0,.42l3.09,1.8a.56.56,0,0,0,.49,0l3.05-1.76a.23.23,0,0,0,0-.43l-3.1-1.79a.6.6,0,0,0-.49,0Z"/><path class="cls-5" d="M175.16,252.32a.23.23,0,0,0,0,.43l3.09,1.79a.6.6,0,0,0,.49,0l3-1.77c.2-.12.2-.31,0-.42l-3.1-1.8a.56.56,0,0,0-.49,0Z"/><path class="cls-5" d="M193.85,263.14c-.2.11-.2.3,0,.42l3.09,1.79a.6.6,0,0,0,.49,0l3-1.77c.2-.12.2-.31,0-.42l-3.09-1.79a.53.53,0,0,0-.49,0Z"/><path class="cls-5" d="M174.35,241.41l1.4-.81a.23.23,0,0,0,0-.43l-3.1-1.79a.6.6,0,0,0-.49,0l-1.39.81a.23.23,0,0,0,0,.43l3.09,1.79A.6.6,0,0,0,174.35,241.41Z"/><path class="cls-5" d="M184.17,264.73l-3,1.77c-.2.12-.2.31,0,.42l3.09,1.79a.53.53,0,0,0,.49,0l3.05-1.77c.2-.11.2-.3,0-.42l-3.09-1.79A.6.6,0,0,0,184.17,264.73Z"/><path class="cls-5" d="M160.75,251.19l-3,1.77c-.21.12-.21.3,0,.42l3.09,1.79a.56.56,0,0,0,.49,0l3.05-1.77c.2-.11.2-.3,0-.42l-3.1-1.79A.6.6,0,0,0,160.75,251.19Z"/><path class="cls-5" d="M156.18,231.18l3.09,1.79a.6.6,0,0,0,.49,0l1.4-.81c.2-.12.2-.31,0-.42l-3.1-1.79a.54.54,0,0,0-.48,0l-1.4.81C156,230.87,156,231.06,156.18,231.18Z"/><path class="cls-5" d="M159.65,250.69c.2-.11.2-.3,0-.42l-3.09-1.79a.6.6,0,0,0-.49,0l-3,1.77c-.2.12-.2.31,0,.42l3.1,1.79a.51.51,0,0,0,.48,0Z"/><path class="cls-5" d="M151.67,233.47c-.2.12-.2.31,0,.42l5.39,3.12a.53.53,0,0,0,.49,0l3-1.77c.2-.11.2-.3,0-.42l-5.4-3.12a.57.57,0,0,0-.48,0Z"/><path class="cls-5" d="M165.9,236.38c-.2.12-.2.31,0,.42l3.1,1.8a.56.56,0,0,0,.49,0l1.39-.81c.2-.11.2-.3,0-.42l-3.09-1.79a.6.6,0,0,0-.49,0Z"/><path class="cls-5" d="M180.49,244.82c-.2.12-.2.31,0,.42l3.1,1.79a.6.6,0,0,0,.49,0l1.39-.81c.2-.12.2-.3,0-.42L182.38,244a.6.6,0,0,0-.49,0Z"/><path class="cls-5" d="M161,233.57c-.2.12-.2.31,0,.42l3.1,1.79a.51.51,0,0,0,.48,0L166,235c.2-.12.2-.3,0-.42l-3.09-1.79a.6.6,0,0,0-.49,0Z"/><path class="cls-5" d="M175.63,242c-.2.11-.2.3,0,.42l3.09,1.79a.6.6,0,0,0,.49,0l1.4-.81c.2-.12.2-.31,0-.42l-3.09-1.8a.6.6,0,0,0-.49,0Z"/><path class="cls-5" d="M200,256.07c-.2.12-.2.3,0,.42l3.09,1.79a.56.56,0,0,0,.49,0l1.39-.81c.21-.12.21-.3,0-.42l-3.09-1.79a.6.6,0,0,0-.49,0Z"/><path class="cls-5" d="M195.08,253.26c-.2.11-.2.3,0,.42l3.1,1.79a.6.6,0,0,0,.49,0l1.39-.81c.2-.12.2-.31,0-.42l-3.09-1.8a.56.56,0,0,0-.49,0Z"/><path class="cls-5" d="M190.22,250.44a.23.23,0,0,0,0,.43l3.09,1.79a.6.6,0,0,0,.49,0l1.4-.81a.23.23,0,0,0,0-.43l-3.09-1.79a.6.6,0,0,0-.49,0Z"/><path class="cls-5" d="M185.36,247.63c-.2.12-.2.31,0,.42l3.09,1.8a.56.56,0,0,0,.49,0l1.4-.81c.2-.11.2-.3,0-.42l-3.1-1.79a.6.6,0,0,0-.49,0Z"/><path class="cls-5" d="M204.81,258.88c-.2.12-.2.31,0,.42l3.09,1.8a.56.56,0,0,0,.49,0l1.4-.81c.2-.11.2-.3,0-.42l-3.1-1.79a.57.57,0,0,0-.48,0Z"/><path class="cls-5" d="M216.89,273.07c.2-.12.2-.31,0-.42l-5.4-3.13a.56.56,0,0,0-.49,0l-3,1.76c-.21.12-.21.31,0,.42l5.39,3.13a.6.6,0,0,0,.49,0Z"/><path class="cls-5" d="M221.43,270.43c.2-.12.2-.31,0-.42l-3.09-1.8a.56.56,0,0,0-.49,0l-3,1.76a.23.23,0,0,0,0,.43l3.1,1.79a.6.6,0,0,0,.49,0Z"/><path class="cls-5" d="M137.52,245.52l-3.09-1.79a.6.6,0,0,0-.49,0l-1.27.74c-.2.11-.2.3,0,.42l3.09,1.79a.6.6,0,0,0,.49,0l1.27-.74C137.72,245.83,137.72,245.64,137.52,245.52Z"/><path class="cls-5" d="M207.63,278.44c.2-.12.2-.31,0-.42l-8.95-5.18a.6.6,0,0,0-.49,0l-3.05,1.77c-.2.12-.2.3,0,.42l9,5.18a.6.6,0,0,0,.49,0Z"/><path class="cls-5" d="M152.69,241.26c.2-.12.2-.31,0-.42l-6.57-3.8a.6.6,0,0,0-.49,0l-3,1.77c-.2.11-.2.3,0,.42l6.57,3.8a.6.6,0,0,0,.49,0Z"/><path class="cls-5" d="M159.81,256c.2-.11.2-.3,0-.42l-4.12-2.38a.56.56,0,0,0-.49,0l-3.69,2.14c-.2.12-.2.31,0,.42l4.11,2.39a.6.6,0,0,0,.49,0Z"/><path class="cls-5" d="M147.12,236.11c-.2.12-.2.3,0,.42l3.09,1.79a.56.56,0,0,0,.49,0l3.05-1.77c.2-.11.2-.3,0-.42l-3.09-1.79a.6.6,0,0,0-.49,0Z"/><path class="cls-5" d="M183.16,269.53c.2-.12.2-.31,0-.42l-21.7-12.55a.54.54,0,0,0-.48,0l-3.7,2.14c-.2.12-.2.31,0,.42L179,271.68a.6.6,0,0,0,.49,0Z"/><path class="cls-5" d="M203.08,281.05c.2-.12.2-.31,0-.42l-3.1-1.8a.56.56,0,0,0-.49,0L195.8,281c-.2.12-.2.3,0,.42l3.09,1.79a.6.6,0,0,0,.49,0Z"/><path class="cls-5" d="M148.34,247.54c-.2.12-.2.31,0,.42l3.09,1.8a.56.56,0,0,0,.49,0L155,248a.23.23,0,0,0,0-.43l-3.09-1.79a.6.6,0,0,0-.49,0Z"/><path class="cls-5" d="M151.79,238.81c-.2.12-.2.31,0,.42l3.1,1.8a.54.54,0,0,0,.48,0l3-1.76a.23.23,0,0,0,0-.43L155.33,237a.6.6,0,0,0-.49,0Z"/><path class="cls-5" d="M169,256.11c.2-.12.2-.3,0-.42l-3.1-1.79a.57.57,0,0,0-.48,0l-3.05,1.77c-.2.11-.2.3,0,.42l3.09,1.79a.6.6,0,0,0,.49,0Z"/><path class="cls-5" d="M173.7,258.82c.2-.12.2-.31,0-.42l-3.09-1.79a.53.53,0,0,0-.49,0l-3.05,1.77c-.2.11-.2.3,0,.42l3.09,1.79a.6.6,0,0,0,.49,0Z"/><path class="cls-5" d="M178.38,261.53c.2-.12.2-.31,0-.42l-3.09-1.8a.56.56,0,0,0-.49,0l-3.05,1.76a.23.23,0,0,0,0,.43l3.1,1.79a.6.6,0,0,0,.49,0Z"/><path class="cls-5" d="M158.73,237.55a.23.23,0,0,0,0,.43l3.09,1.79a.6.6,0,0,0,.49,0l3.05-1.77c.2-.12.2-.31,0-.42l-3.1-1.8a.54.54,0,0,0-.48,0Z"/><path class="cls-5" d="M168.07,243c-.2.12-.2.3,0,.42l3.1,1.79a.56.56,0,0,0,.49,0l3-1.77c.21-.11.21-.3,0-.42l-3.09-1.79a.6.6,0,0,0-.49,0Z"/><path class="cls-5" d="M172.75,245.66c-.2.12-.2.31,0,.42l3.09,1.8a.56.56,0,0,0,.49,0l3-1.77c.2-.11.2-.3,0-.42l-3.1-1.79a.6.6,0,0,0-.49,0Z"/><path class="cls-5" d="M163.4,240.26c-.2.11-.2.3,0,.42l3.09,1.79a.6.6,0,0,0,.49,0L170,240.7c.2-.12.2-.31,0-.42l-3.09-1.79a.6.6,0,0,0-.49,0Z"/><path class="cls-5" d="M209.67,261.69a.23.23,0,0,0,0,.43l3.1,1.79a.57.57,0,0,0,.48,0l1.4-.81a.23.23,0,0,0,0-.43l-3.09-1.79a.6.6,0,0,0-.49,0Z"/><path class="cls-5" d="M183.07,264.24a.23.23,0,0,0,0-.43L180,262a.6.6,0,0,0-.49,0l-3,1.77c-.2.12-.2.31,0,.42l3.09,1.8a.56.56,0,0,0,.49,0Z"/><path class="cls-5" d="M157.24,243.93c.2-.11.2-.3,0-.42l-3.1-1.79a.57.57,0,0,0-.48,0l-3,1.77c-.2.12-.2.31,0,.42l3.09,1.79a.53.53,0,0,0,.49,0Z"/><path class="cls-5" d="M177.42,248.36a.23.23,0,0,0,0,.43l3.09,1.79a.6.6,0,0,0,.49,0l3.05-1.77c.2-.12.2-.31,0-.42l-3.09-1.8a.56.56,0,0,0-.49,0Z"/><path class="cls-5" d="M216.76,267.73a.23.23,0,0,0,0-.43l-3.09-1.79a.6.6,0,0,0-.49,0l-3.05,1.77c-.2.12-.2.31,0,.42l3.09,1.8a.56.56,0,0,0,.49,0Z"/><path class="cls-5" d="M192.43,269.65c.2-.11.2-.3,0-.42l-3.09-1.79a.6.6,0,0,0-.49,0l-3,1.77c-.2.12-.2.3,0,.42l3.1,1.79a.54.54,0,0,0,.48,0Z"/><path class="cls-5" d="M214.54,264.51c-.21.11-.21.3,0,.42l3.09,1.79a.6.6,0,0,0,.49,0l1.39-.81c.21-.12.21-.31,0-.42l-3.09-1.8a.56.56,0,0,0-.49,0Z"/><path class="cls-5" d="M209.83,269c.2-.11.2-.3,0-.42l-3.1-1.79a.6.6,0,0,0-.49,0l-3.05,1.77c-.2.12-.2.31,0,.42l3.09,1.79a.56.56,0,0,0,.49,0Z"/><path class="cls-5" d="M197.12,272.36c.2-.12.2-.3,0-.42l-3.1-1.79a.6.6,0,0,0-.49,0l-3,1.77c-.21.11-.21.3,0,.42l3.09,1.79a.6.6,0,0,0,.49,0Z"/><path class="cls-5" d="M204.09,271c.2-.12.2-.3,0-.42L201,268.82a.56.56,0,0,0-.49,0l-3,1.77c-.2.11-.2.3,0,.42l3.09,1.79a.6.6,0,0,0,.49,0Z"/><path class="cls-15" d="M442,239.78h0v-1h-1.42l-1.25-.72a1.61,1.61,0,0,0-1.45,0l-1.25.72h-1.42v1.06h0a.49.49,0,0,0,.3.42l2.37,1.37a1.61,1.61,0,0,0,1.45,0l2.37-1.37A.49.49,0,0,0,442,239.78Z"/><path class="cls-16" d="M437.86,236.91l-2.37,1.37a.44.44,0,0,0,0,.84l2.37,1.36a1.55,1.55,0,0,0,1.45,0l2.37-1.36a.44.44,0,0,0,0-.84l-2.37-1.37A1.61,1.61,0,0,0,437.86,236.91Z"/><path class="cls-15" d="M449.62,235.38h0v-1H448.2l-1.25-.72a1.61,1.61,0,0,0-1.45,0l-1.25.72h-1.42v1.07h0a.52.52,0,0,0,.3.42l2.37,1.36a1.55,1.55,0,0,0,1.45,0l2.37-1.36A.51.51,0,0,0,449.62,235.38Z"/><path class="cls-16" d="M445.5,232.52l-2.37,1.36c-.4.24-.4.61,0,.84l2.37,1.37a1.61,1.61,0,0,0,1.45,0l2.37-1.36c.4-.24.4-.61,0-.84L447,232.52A1.61,1.61,0,0,0,445.5,232.52Z"/><path class="cls-15" d="M457.25,231h0v-1h-1.42l-1.25-.72a1.63,1.63,0,0,0-1.46,0l-1.24.72h-1.42V231h0a.52.52,0,0,0,.3.42l2.36,1.36a1.63,1.63,0,0,0,1.46,0l2.37-1.36A.49.49,0,0,0,457.25,231Z"/><path class="cls-16" d="M453.13,228.11l-2.36,1.36a.44.44,0,0,0,0,.84l2.36,1.37a1.63,1.63,0,0,0,1.46,0l2.37-1.37a.44.44,0,0,0,0-.84l-2.37-1.36A1.57,1.57,0,0,0,453.13,228.11Z"/><path class="cls-15" d="M434.34,235.38h0v-1h-1.42l-1.24-.72a1.63,1.63,0,0,0-1.46,0l-1.24.72h-1.43v1.07h0a.51.51,0,0,0,.31.42l2.36,1.36a1.57,1.57,0,0,0,1.46,0l2.36-1.36A.49.49,0,0,0,434.34,235.38Z"/><path class="cls-16" d="M430.22,232.52l-2.36,1.36c-.41.24-.41.61,0,.84l2.36,1.37a1.63,1.63,0,0,0,1.46,0l2.36-1.36c.41-.24.41-.61,0-.85l-2.36-1.36A1.63,1.63,0,0,0,430.22,232.52Z"/><path class="cls-15" d="M441.47,231.29h0v-1h-1.42l-1.25-.72a1.61,1.61,0,0,0-1.45,0l-1.25.72h-1.42v1.06h0a.49.49,0,0,0,.3.42l2.37,1.37a1.61,1.61,0,0,0,1.45,0l2.37-1.36A.52.52,0,0,0,441.47,231.29Z"/><path class="cls-16" d="M437.35,228.43,435,229.79a.44.44,0,0,0,0,.84l2.37,1.37a1.61,1.61,0,0,0,1.45,0l2.37-1.37a.44.44,0,0,0,0-.84l-2.37-1.36A1.55,1.55,0,0,0,437.35,228.43Z"/><path class="cls-15" d="M449.62,226.57h0v-1H448.2l-1.25-.72a1.61,1.61,0,0,0-1.45,0l-1.25.72h-1.42v1.07h0a.52.52,0,0,0,.3.42l2.37,1.37a1.61,1.61,0,0,0,1.45,0l2.37-1.37A.5.5,0,0,0,449.62,226.57Z"/><path class="cls-16" d="M445.5,223.71l-2.37,1.37c-.4.23-.4.6,0,.84l2.37,1.36a1.61,1.61,0,0,0,1.45,0l2.37-1.36a.44.44,0,0,0,0-.84L447,223.71A1.61,1.61,0,0,0,445.5,223.71Z"/><path class="cls-15" d="M449.61,244.19h0v-1h-1.42l-1.25-.72a1.61,1.61,0,0,0-1.45,0l-1.25.72h-1.42v1.07h0a.52.52,0,0,0,.3.42l2.37,1.36a1.61,1.61,0,0,0,1.45,0l2.37-1.36A.52.52,0,0,0,449.61,244.19Z"/><path class="cls-16" d="M445.49,241.33l-2.37,1.36a.44.44,0,0,0,0,.84l2.37,1.37a1.61,1.61,0,0,0,1.45,0l2.37-1.37c.4-.23.4-.6,0-.84l-2.37-1.36A1.61,1.61,0,0,0,445.49,241.33Z"/><path class="cls-15" d="M457.25,239.8h0v-1h-1.42l-1.25-.71a1.55,1.55,0,0,0-1.45,0l-1.25.71h-1.42v1.07h0a.51.51,0,0,0,.3.42l2.37,1.37a1.61,1.61,0,0,0,1.45,0l2.37-1.37A.49.49,0,0,0,457.25,239.8Z"/><path class="cls-16" d="M453.13,236.93l-2.37,1.37a.44.44,0,0,0,0,.84l2.37,1.36a1.55,1.55,0,0,0,1.45,0l2.37-1.36a.44.44,0,0,0,0-.84l-2.37-1.37A1.61,1.61,0,0,0,453.13,236.93Z"/><path class="cls-15" d="M463.9,244.56h0v-1h-1.43l-1.24-.72a1.63,1.63,0,0,0-1.46,0l-1.24.72h-1.42v1.06h0a.52.52,0,0,0,.3.43l2.36,1.36a1.63,1.63,0,0,0,1.46,0L463.6,245A.5.5,0,0,0,463.9,244.56Z"/><path class="cls-16" d="M459.78,241.7l-2.36,1.36a.44.44,0,0,0,0,.84l2.36,1.37a1.63,1.63,0,0,0,1.46,0l2.36-1.37a.44.44,0,0,0,0-.84l-2.36-1.36A1.57,1.57,0,0,0,459.78,241.7Z"/><path class="cls-15" d="M464.89,235.38h0v-1h-1.42l-1.25-.72a1.63,1.63,0,0,0-1.46,0l-1.24.72H458.1v1.07h0a.52.52,0,0,0,.3.42l2.36,1.36a1.57,1.57,0,0,0,1.46,0l2.37-1.36A.51.51,0,0,0,464.89,235.38Z"/><path class="cls-16" d="M460.76,232.52l-2.36,1.36c-.4.24-.4.61,0,.84l2.36,1.37a1.63,1.63,0,0,0,1.46,0l2.37-1.36a.45.45,0,0,0,0-.85l-2.37-1.36A1.63,1.63,0,0,0,460.76,232.52Z"/><path class="cls-2" d="M414.14,112.39c-.31.19-5.21,3.1-8.62,10.81a11.44,11.44,0,0,0,8.89,4.38h0a19.26,19.26,0,0,1-1.69-8A19.5,19.5,0,0,1,414.14,112.39Z"/><path class="cls-8" d="M423,123.6c-3.53-8.26-8.8-11.21-8.81-11.21h0a19.5,19.5,0,0,0-1.37,7.22,19.26,19.26,0,0,0,1.69,8A11.42,11.42,0,0,0,423,123.6Z"/><polygon class="cls-3" points="203.34 447.3 203.35 451.71 264.55 416.38 260.73 414.17 203.34 447.3"/><path class="cls-5" d="M405.88,363.59l-11.58-6.68-11.62,6.71c-2.23,0-3.65,0-3.65,0v2.15l15.27,8.81,15.27-8.81v-2.15Z"/><polygon class="cls-3" points="409.57 363.58 394.3 372.4 394.3 374.54 409.57 365.73 409.57 363.58"/><polygon class="cls-16" points="394.3 344.18 394.3 314.2 406.52 337.13 394.3 344.18"/><polygon class="cls-15" points="382.09 337.13 394.3 344.18 394.3 314.2 382.09 337.13"/><polygon class="cls-8" points="379.03 363.58 394.3 372.4 409.57 363.58 394.3 354.76 379.03 363.58"/><path class="cls-5" d="M397.36,363.58h0a6.12,6.12,0,0,1-6.11,0h0v-7.05h6.11Z"/><polygon class="cls-17" points="394.3 351.24 408.05 343.3 404.99 338.01 394.3 344.18 394.3 351.24"/><polygon class="cls-19" points="394.3 358.29 408.05 350.36 404.99 345.07 394.3 351.24 394.3 358.29"/><polygon class="cls-20" points="394.3 351.24 380.56 343.3 383.61 338.01 394.3 344.18 394.3 351.24"/><polygon class="cls-21" points="394.3 358.29 380.56 350.36 383.61 345.07 394.3 351.24 394.3 358.29"/><path class="cls-6" d="M344.66,288.4c-11.69,0-21.33,5.05-22.74,11.58a7.75,7.75,0,0,0-.19,1.66c0,7.31,10.27,13.24,22.93,13.24s22.93-5.93,22.93-13.24a7.74,7.74,0,0,0-.18-1.66C366,293.45,356.36,288.4,344.66,288.4Z"/><path class="cls-3" d="M367.41,300c-.91-4.19-5.22-7.78-11.28-9.8a37.81,37.81,0,0,0-22.93,0c-6.07,2-10.38,5.6-11.28,9.8a7.68,7.68,0,0,0-.19,1.66,8.91,8.91,0,0,0,2.25,5.72,20.28,20.28,0,0,1,9.22-5.74,37.81,37.81,0,0,1,22.93,0,20.33,20.33,0,0,1,9.21,5.74,8.86,8.86,0,0,0,2.25-5.72A7.67,7.67,0,0,0,367.41,300Z"/><path class="cls-10" d="M344.66,288.52c-11.69,0-21.33,5.05-22.74,11.58a7.68,7.68,0,0,0-.19,1.66c0,7.31,10.27,13.23,22.93,13.23s22.93-5.92,22.93-13.23a7.67,7.67,0,0,0-.18-1.66C366,293.57,356.36,288.52,344.66,288.52Z"/><line class="cls-10" x1="321.73" y1="255.57" x2="321.73" y2="301.64"/><line class="cls-10" x1="367.59" y1="301.64" x2="367.59" y2="255.57"/><path class="cls-19" d="M341.89,284.07a9.2,9.2,0,0,1-4.18-7.21c0-2.65,1.87-3.71,4.18-2.38a6.73,6.73,0,0,1,.92.65,9.64,9.64,0,0,0,3.15,5.41,6.48,6.48,0,0,1,.11,1.15C346.07,284.33,344.2,285.4,341.89,284.07Z"/><polygon class="cls-19" points="334.34 266.31 334.34 266.31 334.35 266.3 334.34 266.31"/><path class="cls-19" d="M352.53,285.42h0c0-2.29-8.68-17.22-10.64-18.36-2.94-1.69-5.59-1.86-7.52-.77l4.62-2.65c1.95-1.34,4.76-1.26,7.88.54,5.88,3.4,10.65,11.61,10.65,18.36h0c0,4-1.09,8.54-5.32,10.88l-4.83,2.79C351.47,293.84,352.53,289.34,352.53,285.42Z"/><path class="cls-19" d="M347.18,296.32h0Z"/><path class="cls-16" d="M331.25,273.13h0c0,5.29,1.92,13.86,10.64,24.67,8.71-.75,10.64-7.09,10.64-12.38h0c0-6.75-4.77-15-10.64-18.36S331.25,266.38,331.25,273.13Zm6.46,3.73c0-2.65,1.87-3.71,4.18-2.38a9.2,9.2,0,0,1,4.18,7.21c0,2.64-1.87,3.71-4.18,2.38A9.2,9.2,0,0,1,337.71,276.86Z"/><path class="cls-10" d="M344.66,242.33c-11.69,0-21.33,5.06-22.74,11.58a7.75,7.75,0,0,0-.19,1.66c0,7.31,10.27,13.24,22.93,13.24s22.93-5.93,22.93-13.24a7.74,7.74,0,0,0-.18-1.66C366,247.39,356.36,242.33,344.66,242.33Z"/><path class="cls-22" d="M344.78,242.33c-11.69,0-21.33,5.06-22.75,11.58a8.44,8.44,0,0,0-.18,1.66c0,7.31,10.27,13.24,22.93,13.24s22.93-5.93,22.93-13.24a8.44,8.44,0,0,0-.18-1.66C366.11,247.39,356.47,242.33,344.78,242.33Z"/><path class="cls-22" d="M367.59,255.51h0a7.58,7.58,0,0,0-.18-1.65c-1.41-6.53-11.06-11.58-22.75-11.58s-21.33,5.05-22.74,11.58a7.59,7.59,0,0,0-.19,1.65v46.07h0v.11c0,7.32,10.27,13.24,22.93,13.24s22.93-5.92,22.93-13.24v-.11h0Z"/><polygon class="cls-17" points="134.44 269.19 136.26 286.98 137.7 289.1 140.27 287.64 140.27 269.61 137 267.72 134.44 269.19"/><path class="cls-17" d="M104,251.26a17,17,0,0,0-2.5-3.34,13.89,13.89,0,0,0-3.19-2.52l-5.78-3.34L90,243.52l2.57,3v13.6l5.78,3.34a10.16,10.16,0,0,0,1.74.8l-.16,1,1.66.29,2.45-1.39a3.94,3.94,0,0,0,1.62-1.92,8,8,0,0,0,.58-3.23v0a13.51,13.51,0,0,0-.58-3.87A17,17,0,0,0,104,251.26Zm-3.17,8.34-.16.91a2.35,2.35,0,0,1-.53,0,4.8,4.8,0,0,1-1.83-.66l-2.52-1.46v-8.55L98.24,252l2.75,2.37Z"/><polygon class="cls-17" points="112.31 266.77 116.74 269.69 119.31 268.23 119.31 264.7 112.31 260.67 112.31 259.27 117.69 263.06 120.26 261.59 120.26 258.06 109.09 251.62 106.52 253.08 107.43 269.08 115.31 275.68 117.8 277.62 120.37 276.16 120.37 272.63 112.31 267.98 112.31 266.77"/><path class="cls-17" d="M132.79,274.43a12.8,12.8,0,0,0-1.48-1.94c-.46-.5-1-1-1.54-1.53l2.08-1.18,1.7-2a19.4,19.4,0,0,0-2.51-3.15,13.86,13.86,0,0,0-3-2.32,6.48,6.48,0,0,0-2.1-.83,2.72,2.72,0,0,0-1.63.17l-2.64,1.49,1.2,1.71a7.87,7.87,0,0,0,.29,2.18L123,267a10.81,10.81,0,0,0-.31,2.24c.12.11,1.26,3.07,1.56,3.86a.36.36,0,0,0-.07-.1l-2.56,1.46L123.4,279l3,1.76,1.58,2.19,1.92.17.18.22,2.62-1.49.09,0h0a2.47,2.47,0,0,0,.79-.94,5,5,0,0,0,.4-2.15v-.05a7.82,7.82,0,0,0-.31-2.21A8.24,8.24,0,0,0,132.79,274.43Zm-7.38.21c-.27-.35-.54-.72-.8-1.11l.9-1.39.12-1.05.13.14c.51.52,1.08,1.06,1.69,1.6Zm2.3-5.58a9.78,9.78,0,0,1-1-1.06,2.83,2.83,0,0,1-.5-.87,2.14,2.14,0,0,1-.12-.57l1.24.26,2.74,3.25-.5.72-.29-.27C128.66,269.94,128.13,269.46,127.71,269.06Z"/><polygon class="cls-17" points="170.55 287.08 167.99 288.54 169.07 294.95 163.6 283.07 160.59 281.33 158.03 282.8 160.59 287.56 160.59 298.95 160.51 298.94 161 301.73 161.25 302.69 163.81 301.22 163.81 293.53 168.57 302.34 169.24 301.54 170.75 304.84 170.52 304.81 171.21 308.43 173.78 306.97 173.78 288.94 170.55 287.08"/><path class="cls-17" d="M154.87,283.21l2.06-1.83c-.39-.61-.78-1.19-1.19-1.74a17.58,17.58,0,0,0-1.31-1.53,18,18,0,0,0-1.52-1.35,15.82,15.82,0,0,0-1.81-1.21,7.3,7.3,0,0,0-3.12-1.07,4,4,0,0,0-2.46.6l-2.15,1.22-.66,1.28,1-.06a8.82,8.82,0,0,0-.43,2.86v.06c0,.13,0,.26,0,.39l-.68,1.16.88,7,6.3,5.48,5.06,2,2.57-1.47v-7.82l-4.75-2.74ZM153,290l-.16,1.35a6.46,6.46,0,0,1-1.57-.66,7.59,7.59,0,0,1-1.81-1.47,10.58,10.58,0,0,1-1.42-2,11.14,11.14,0,0,1-.93-2.36,9.53,9.53,0,0,1-.33-2.47v-.06a5.42,5.42,0,0,1,.33-2,2.94,2.94,0,0,1,.68-1.05l4.9,2.65-.28,2.31-1.35-.77-2.56,1.46Z"/><path class="cls-16" d="M90,243.52l5.79,3.34a14.63,14.63,0,0,1,3.19,2.52,17.75,17.75,0,0,1,2.5,3.34,17,17,0,0,1,1.62,3.78,13.85,13.85,0,0,1,.57,3.87v.05a8.15,8.15,0,0,1-.57,3.23,3.94,3.94,0,0,1-1.62,1.92,4.09,4.09,0,0,1-2.5.46,7.92,7.92,0,0,1-3.19-1.14L90,261.55Zm5.79,17.79a4.76,4.76,0,0,0,1.82.66,2.06,2.06,0,0,0,1.41-.29,2.52,2.52,0,0,0,.91-1.18,5.19,5.19,0,0,0,.33-2v-.05a8.93,8.93,0,0,0-.33-2.38,10.5,10.5,0,0,0-.91-2.25,9.56,9.56,0,0,0-1.41-1.93,7.8,7.8,0,0,0-1.82-1.45L93.21,249v10.87Z"/><path class="cls-16" d="M106.52,253.08l11.17,6.45v3.53l-7.94-4.59v3.66l7,4v3.53l-7-4v3.78l8,4.65v3.53l-11.28-6.51Z"/><path class="cls-16" d="M126,282.62A15.63,15.63,0,0,1,122.7,280a19.93,19.93,0,0,1-3-3.89l1.93-1.69a22.38,22.38,0,0,0,2.08,2.8,9.45,9.45,0,0,0,2.35,1.94,2.33,2.33,0,0,0,1.58.46c.37-.08.56-.39.56-.92v-.05a2.36,2.36,0,0,0-.12-.75,3,3,0,0,0-.45-.82,11.35,11.35,0,0,0-.91-1c-.39-.39-.9-.86-1.52-1.42s-1.43-1.29-2-1.92a12.61,12.61,0,0,1-1.55-1.91,8.45,8.45,0,0,1-1-2.08,8.12,8.12,0,0,1-.35-2.44v-.05a4.59,4.59,0,0,1,.38-2,2.27,2.27,0,0,1,1.06-1.1,2.74,2.74,0,0,1,1.64-.17,6.52,6.52,0,0,1,2.09.83,13.86,13.86,0,0,1,3,2.32,19.4,19.4,0,0,1,2.51,3.15l-1.69,2a25.78,25.78,0,0,0-1.95-2.43,8.26,8.26,0,0,0-1.91-1.57c-.64-.37-1.11-.5-1.43-.38a.79.79,0,0,0-.48.84v.06a2.64,2.64,0,0,0,.14.84,3.15,3.15,0,0,0,.5.86,8.32,8.32,0,0,0,1,1.06c.42.4.94.88,1.58,1.46s1.42,1.33,2,2a12.89,12.89,0,0,1,1.49,1.94,8.59,8.59,0,0,1,.91,2,7.47,7.47,0,0,1,.31,2.21v.05a4.85,4.85,0,0,1-.4,2.15,2.2,2.2,0,0,1-1.12,1.11,2.92,2.92,0,0,1-1.71.1A7.86,7.86,0,0,1,126,282.62Z"/><path class="cls-16" d="M134.44,269.19l3.26,1.88v18l-3.26-1.88Z"/><path class="cls-16" d="M148.55,295.67a14.07,14.07,0,0,1-3.17-2.52,17.46,17.46,0,0,1-2.45-3.35,17.9,17.9,0,0,1-1.61-3.86,14.92,14.92,0,0,1-.57-4v0a8.27,8.27,0,0,1,.59-3.29,4.3,4.3,0,0,1,1.62-2,4,4,0,0,1,2.46-.6,7.31,7.31,0,0,1,3.11,1.07,15,15,0,0,1,1.81,1.21,16.6,16.6,0,0,1,1.52,1.35,17.58,17.58,0,0,1,1.31,1.53c.41.55.81,1.13,1.19,1.75l-2.06,1.82q-.42-.68-.84-1.26c-.29-.39-.58-.74-.88-1.07a10.89,10.89,0,0,0-1-.93,8.19,8.19,0,0,0-1.16-.8,3.21,3.21,0,0,0-1.67-.51,2.23,2.23,0,0,0-1.36.43,2.81,2.81,0,0,0-.91,1.25,5.44,5.44,0,0,0-.33,2v.05a9.53,9.53,0,0,0,.33,2.47,10.66,10.66,0,0,0,.94,2.36,9.76,9.76,0,0,0,1.42,2,7.22,7.22,0,0,0,1.81,1.47,4,4,0,0,0,3.07.68v-2.59l-3.28-1.9v-3.42l6.44,3.72v7.83a5.8,5.8,0,0,1-2.72.45A8.28,8.28,0,0,1,148.55,295.67Z"/><path class="cls-5" d="M391.76,241.6c0-4.13-2.58-9-5.76-10.8a4.6,4.6,0,0,0-2.47-.7c-.29-6.39-4.27-13.62-9.14-16.42a7.85,7.85,0,0,0-3.32-1.11c-1.52-5.87-5.27-11.57-9.66-14.1-2.64-1.53-5.06-1.63-6.9-.57h0l-2.45,1.42.41.63a11.16,11.16,0,0,0-1.43,5.54h0c-2-1.17-3.87-1.22-5.25-.36h0l-2.35,1.35.64.64a9.2,9.2,0,0,0-.78,4c0,5.55,3.46,12,7.74,14.52l35,20.16,0,0c0,.27-.06.53-.06.55s1.52,1.08,1.52,1.08l2.26-1.3.15-.09h0C391.06,245.29,391.76,243.75,391.76,241.6Z"/><path class="cls-18" d="M383.54,232.22a4.6,4.6,0,0,0-2.47-.7c-.29-6.39-4.27-13.62-9.14-16.42a7.85,7.85,0,0,0-3.32-1.11c-1.52-5.87-5.27-11.57-9.66-14.1-2.64-1.53-5.06-1.63-6.89-.57-2.05,1.18-3.38,3.83-3.48,7.59h0c-4.28-2.46-7.74,0-7.74,5.6s3.46,12.05,7.74,14.52l35,20.16c3.18,1.83,5.76,0,5.76-4.16S386.72,234.05,383.54,232.22Z"/><path class="cls-16" d="M158,282.8l3,1.73,7,15.12V288.54l3.22,1.86v18l-2.78-1.6-7.18-15.61v11.47L158,300.83Z"/><polygon class="cls-13" points="195.7 341.34 260.62 303.86 375.19 370 310.26 407.49 195.7 341.34"/><polygon class="cls-11" points="195.7 341.34 260.62 303.86 375.19 370 310.26 407.49 195.7 341.34"/><path class="cls-23" d="M371.36,372.21l-3.81,2.2H253l-3.82-2.2ZM269.47,383.93l13.33,7.7h54.93l13.33-7.7Zm21.1,12.18,4.42,2.56h30.55l4.42-2.56ZM226.25,323.7l-14.48,8.36h97.69l-6.83-3.95H226.25Zm118.26,28.59L326,341.58H196.11l18.56,10.71Zm-72.62-41.92-11.27-6.51-11.27,6.51ZM375.19,370Z"/><path class="cls-2" d="M314.61,321.94l-33-19a3.76,3.76,0,0,0-3.77,0h0l0,0h0L274,305.08l-.38,4.41,2.29,0v25.38a7.71,7.71,0,0,0,3.84,6.65l26.71,15.42,3.34,1.92-.66.53,3.82,4.16,3.68-2.1.1-.05.06,0h0a2.41,2.41,0,0,0,1.13-2.06V327.66A6.61,6.61,0,0,0,314.61,321.94Z"/><path class="cls-14" d="M310.79,324.12l-33-19a3.81,3.81,0,0,0-5.72,3.3V337a7.7,7.7,0,0,0,3.83,6.65l9.53,5.51,7,16.09a1.05,1.05,0,0,0,1.77.27l6.54-7.54,1.91,1.09,7.77,4.48a2.46,2.46,0,0,0,3.69-2.12V329.84A6.6,6.6,0,0,0,310.79,324.12Z"/><path class="cls-15" d="M304.51,337v0a10.76,10.76,0,0,0-5.17-8.44,3.64,3.64,0,0,0-3-.58h0l-1.67.65a9.73,9.73,0,0,0-4.12-5.11,4,4,0,0,0-3.5-.6h0l-2.51,1,1.13.54a4.34,4.34,0,0,0-.27,1.59v.05c0,.61,0,6.93,9.54,17.57h0a17.77,17.77,0,0,0,2.59-.09l.7.13,2-.75.25-.1h0A6.14,6.14,0,0,0,304.51,337Z"/><path class="cls-16" d="M302,338v0a10.77,10.77,0,0,0-5.17-8.44c-2.46-1.42-3.89-.47-4.38.91h0a9.91,9.91,0,0,0-4.38-5.95c-3.1-1.79-5.17-.36-5.17,2.49v0c0,.61,0,6.93,9.55,17.57h0C302,345,302,338.64,302,338Z"/></g></g></svg>