<svg xmlns="http://www.w3.org/2000/svg" viewBox="0 0 512 512"><defs><style>.cls-1{fill:#d9e021;}.cls-2{fill:#777d88;}.cls-3{fill:#abb2bf;}.cls-4{fill:none;}</style></defs><title>launch</title><g id="Layer_2" data-name="Layer 2"><g id="Layer_1-2" data-name="Layer 1"><path class="cls-1" d="M317.78,203.14A61.77,61.77,0,1,1,256,141.37,61.77,61.77,0,0,1,317.78,203.14Z"/><path class="cls-2" d="M440.73,512H423.08V320.73A16.35,16.35,0,0,0,406.8,304.4a16.46,16.46,0,0,0-16.37,16.33v0a8.82,8.82,0,0,1-17.64,0A16.35,16.35,0,0,0,368,309.17a16.34,16.34,0,0,0-27.82,11.59,8.83,8.83,0,0,1-17.65,0h0a16.3,16.3,0,1,0-32.59,0,8.82,8.82,0,0,1-17.64,0V203.14a16.31,16.31,0,0,0-32.61,0v208a8.82,8.82,0,0,1-14.16,7,116.5,116.5,0,0,0-71-23.89,16.31,16.31,0,0,0,0,32.61A85.25,85.25,0,0,1,239.7,512H222.05a67.58,67.58,0,0,0-67.51-67.51,34,34,0,0,1,0-67.91,133.91,133.91,0,0,1,67.51,18.05V203.14a34,34,0,0,1,67.9,0v87.78a33.94,33.94,0,0,1,40.32,5.79c.39.39.77.79,1.13,1.19.38-.4.76-.81,1.16-1.2a33.84,33.84,0,0,1,47.95,0q.58.58,1.14,1.2c.37-.42.76-.82,1.16-1.22a33.95,33.95,0,0,1,57.92,24V512Z"/><polygon class="cls-3" points="318.38 153.26 305.9 140.78 326.22 120.46 326.22 74.14 343.86 74.14 343.86 127.77 318.38 153.26"/><polygon class="cls-3" points="193.61 153.26 168.16 127.77 168.16 74.14 185.81 74.14 185.81 120.47 206.1 140.79 193.61 153.26"/><path class="cls-3" d="M264.83,124.39H247.18v-17h17.65Zm0-34H247.18v-17h17.65Z"/><path class="cls-3" d="M385.68,212h-17V194.32h17Zm-33.95,0h-17V194.32h17Z"/><path class="cls-3" d="M177.25,212h-17V194.32h17Zm-34,0h-17V194.32h17Z"/><path class="cls-3" d="M177,83a28.24,28.24,0,1,1,28.24-28.24A28.27,28.27,0,0,1,177,83Zm0-38.83a10.59,10.59,0,1,0,10.59,10.59A10.59,10.59,0,0,0,177,44.12Z"/><path class="cls-3" d="M256,56.48a28.24,28.24,0,1,1,28.24-28.24A28.27,28.27,0,0,1,256,56.48Zm0-38.83a10.59,10.59,0,1,0,10.59,10.59A10.6,10.6,0,0,0,256,17.65Z"/><path class="cls-3" d="M335,83a28.24,28.24,0,1,1,28.24-28.24A28.27,28.27,0,0,1,335,83Zm0-38.83a10.59,10.59,0,1,0,10.59,10.59A10.6,10.6,0,0,0,335,44.12Z"/><path class="cls-3" d="M430.9,231.38a28.24,28.24,0,1,1,28.23-28.24A28.26,28.26,0,0,1,430.9,231.38Zm0-38.82a10.59,10.59,0,1,0,10.59,10.58A10.59,10.59,0,0,0,430.9,192.56Z"/><path class="cls-3" d="M81.1,231.38a28.24,28.24,0,1,1,28.24-28.24A28.26,28.26,0,0,1,81.1,231.38Zm0-38.82a10.59,10.59,0,1,0,10.59,10.58A10.59,10.59,0,0,0,81.1,192.56Z"/><rect class="cls-4" width="512" height="512"/></g></g></svg>