<svg xmlns="http://www.w3.org/2000/svg" viewBox="0 0 200 72" id="el_Oygzlk-sn"><style>@-webkit-keyframes el_lieGfqqtPT_Animation{30%{opacity: 0;}80%{opacity: 1;}0%{opacity: 0;}100%{opacity: 1;}}@keyframes el_lieGfqqtPT_Animation{30%{opacity: 0;}80%{opacity: 1;}0%{opacity: 0;}100%{opacity: 1;}}@-webkit-keyframes el_lieGfqqtPT_U9QQ-Hp57_Animation{30%{-webkit-transform: translate(130.3888931274414px, 36.00961208343506px) translate(-130.3888931274414px, -36.00961208343506px) translate(0px, -15px);transform: translate(130.3888931274414px, 36.00961208343506px) translate(-130.3888931274414px, -36.00961208343506px) translate(0px, -15px);}80%{-webkit-transform: translate(130.3888931274414px, 36.00961208343506px) translate(-130.3888931274414px, -36.00961208343506px) translate(0px, 0px);transform: translate(130.3888931274414px, 36.00961208343506px) translate(-130.3888931274414px, -36.00961208343506px) translate(0px, 0px);}0%{-webkit-transform: translate(130.3888931274414px, 36.00961208343506px) translate(-130.3888931274414px, -36.00961208343506px) translate(0px, -15px);transform: translate(130.3888931274414px, 36.00961208343506px) translate(-130.3888931274414px, -36.00961208343506px) translate(0px, -15px);}100%{-webkit-transform: translate(130.3888931274414px, 36.00961208343506px) translate(-130.3888931274414px, -36.00961208343506px) translate(0px, 0px);transform: translate(130.3888931274414px, 36.00961208343506px) translate(-130.3888931274414px, -36.00961208343506px) translate(0px, 0px);}}@keyframes el_lieGfqqtPT_U9QQ-Hp57_Animation{30%{-webkit-transform: translate(130.3888931274414px, 36.00961208343506px) translate(-130.3888931274414px, -36.00961208343506px) translate(0px, -15px);transform: translate(130.3888931274414px, 36.00961208343506px) translate(-130.3888931274414px, -36.00961208343506px) translate(0px, -15px);}80%{-webkit-transform: translate(130.3888931274414px, 36.00961208343506px) translate(-130.3888931274414px, -36.00961208343506px) translate(0px, 0px);transform: translate(130.3888931274414px, 36.00961208343506px) translate(-130.3888931274414px, -36.00961208343506px) translate(0px, 0px);}0%{-webkit-transform: translate(130.3888931274414px, 36.00961208343506px) translate(-130.3888931274414px, -36.00961208343506px) translate(0px, -15px);transform: translate(130.3888931274414px, 36.00961208343506px) translate(-130.3888931274414px, -36.00961208343506px) translate(0px, -15px);}100%{-webkit-transform: translate(130.3888931274414px, 36.00961208343506px) translate(-130.3888931274414px, -36.00961208343506px) translate(0px, 0px);transform: translate(130.3888931274414px, 36.00961208343506px) translate(-130.3888931274414px, -36.00961208343506px) translate(0px, 0px);}}@-webkit-keyframes el_Yt0ZAp3y_I_Animation{20%{opacity: 0;}71.11%{opacity: 1;}0%{opacity: 0;}100%{opacity: 1;}}@keyframes el_Yt0ZAp3y_I_Animation{20%{opacity: 0;}71.11%{opacity: 1;}0%{opacity: 0;}100%{opacity: 1;}}@-webkit-keyframes el_Yt0ZAp3y_I_qpXqywF5z_Animation{20%{-webkit-transform: translate(109.67023086547852px, 35.95551776885986px) translate(-109.67023086547852px, -35.95551776885986px) translate(0px, -15px);transform: translate(109.67023086547852px, 35.95551776885986px) translate(-109.67023086547852px, -35.95551776885986px) translate(0px, -15px);}71.11%{-webkit-transform: translate(109.67023086547852px, 35.95551776885986px) translate(-109.67023086547852px, -35.95551776885986px) translate(0px, 0px);transform: translate(109.67023086547852px, 35.95551776885986px) translate(-109.67023086547852px, -35.95551776885986px) translate(0px, 0px);}0%{-webkit-transform: translate(109.67023086547852px, 35.95551776885986px) translate(-109.67023086547852px, -35.95551776885986px) translate(0px, -15px);transform: translate(109.67023086547852px, 35.95551776885986px) translate(-109.67023086547852px, -35.95551776885986px) translate(0px, -15px);}100%{-webkit-transform: translate(109.67023086547852px, 35.95551776885986px) translate(-109.67023086547852px, -35.95551776885986px) translate(0px, 0px);transform: translate(109.67023086547852px, 35.95551776885986px) translate(-109.67023086547852px, -35.95551776885986px) translate(0px, 0px);}}@keyframes el_Yt0ZAp3y_I_qpXqywF5z_Animation{20%{-webkit-transform: translate(109.67023086547852px, 35.95551776885986px) translate(-109.67023086547852px, -35.95551776885986px) translate(0px, -15px);transform: translate(109.67023086547852px, 35.95551776885986px) translate(-109.67023086547852px, -35.95551776885986px) translate(0px, -15px);}71.11%{-webkit-transform: translate(109.67023086547852px, 35.95551776885986px) translate(-109.67023086547852px, -35.95551776885986px) translate(0px, 0px);transform: translate(109.67023086547852px, 35.95551776885986px) translate(-109.67023086547852px, -35.95551776885986px) translate(0px, 0px);}0%{-webkit-transform: translate(109.67023086547852px, 35.95551776885986px) translate(-109.67023086547852px, -35.95551776885986px) translate(0px, -15px);transform: translate(109.67023086547852px, 35.95551776885986px) translate(-109.67023086547852px, -35.95551776885986px) translate(0px, -15px);}100%{-webkit-transform: translate(109.67023086547852px, 35.95551776885986px) translate(-109.67023086547852px, -35.95551776885986px) translate(0px, 0px);transform: translate(109.67023086547852px, 35.95551776885986px) translate(-109.67023086547852px, -35.95551776885986px) translate(0px, 0px);}}@-webkit-keyframes el_JaGU6bOsob_Animation{10%{opacity: 0;}60%{opacity: 1;}0%{opacity: 0;}100%{opacity: 1;}}@keyframes el_JaGU6bOsob_Animation{10%{opacity: 0;}60%{opacity: 1;}0%{opacity: 0;}100%{opacity: 1;}}@-webkit-keyframes el_JaGU6bOsob_MWvbyUNZF_Animation{10%{-webkit-transform: translate(91.62761306762695px, 35.94018745422363px) translate(-91.62761306762695px, -35.94018745422363px) translate(0px, -15px);transform: translate(91.62761306762695px, 35.94018745422363px) translate(-91.62761306762695px, -35.94018745422363px) translate(0px, -15px);}60%{-webkit-transform: translate(91.62761306762695px, 35.94018745422363px) translate(-91.62761306762695px, -35.94018745422363px) translate(0px, 0px);transform: translate(91.62761306762695px, 35.94018745422363px) translate(-91.62761306762695px, -35.94018745422363px) translate(0px, 0px);}0%{-webkit-transform: translate(91.62761306762695px, 35.94018745422363px) translate(-91.62761306762695px, -35.94018745422363px) translate(0px, -15px);transform: translate(91.62761306762695px, 35.94018745422363px) translate(-91.62761306762695px, -35.94018745422363px) translate(0px, -15px);}100%{-webkit-transform: translate(91.62761306762695px, 35.94018745422363px) translate(-91.62761306762695px, -35.94018745422363px) translate(0px, 0px);transform: translate(91.62761306762695px, 35.94018745422363px) translate(-91.62761306762695px, -35.94018745422363px) translate(0px, 0px);}}@keyframes el_JaGU6bOsob_MWvbyUNZF_Animation{10%{-webkit-transform: translate(91.62761306762695px, 35.94018745422363px) translate(-91.62761306762695px, -35.94018745422363px) translate(0px, -15px);transform: translate(91.62761306762695px, 35.94018745422363px) translate(-91.62761306762695px, -35.94018745422363px) translate(0px, -15px);}60%{-webkit-transform: translate(91.62761306762695px, 35.94018745422363px) translate(-91.62761306762695px, -35.94018745422363px) translate(0px, 0px);transform: translate(91.62761306762695px, 35.94018745422363px) translate(-91.62761306762695px, -35.94018745422363px) translate(0px, 0px);}0%{-webkit-transform: translate(91.62761306762695px, 35.94018745422363px) translate(-91.62761306762695px, -35.94018745422363px) translate(0px, -15px);transform: translate(91.62761306762695px, 35.94018745422363px) translate(-91.62761306762695px, -35.94018745422363px) translate(0px, -15px);}100%{-webkit-transform: translate(91.62761306762695px, 35.94018745422363px) translate(-91.62761306762695px, -35.94018745422363px) translate(0px, 0px);transform: translate(91.62761306762695px, 35.94018745422363px) translate(-91.62761306762695px, -35.94018745422363px) translate(0px, 0px);}}@-webkit-keyframes el_3vifsXKGL5_Animation{0%{opacity: 0;}50%{opacity: 1;}100%{opacity: 1;}}@keyframes el_3vifsXKGL5_Animation{0%{opacity: 0;}50%{opacity: 1;}100%{opacity: 1;}}@-webkit-keyframes el_3vifsXKGL5_BvnssPpZK_Animation{0%{-webkit-transform: translate(70.98477935791016px, 35.95542335510254px) translate(-70.98477935791016px, -35.95542335510254px) translate(0px, -15px);transform: translate(70.98477935791016px, 35.95542335510254px) translate(-70.98477935791016px, -35.95542335510254px) translate(0px, -15px);}50%{-webkit-transform: translate(70.98477935791016px, 35.95542335510254px) translate(-70.98477935791016px, -35.95542335510254px) translate(0px, 0px);transform: translate(70.98477935791016px, 35.95542335510254px) translate(-70.98477935791016px, -35.95542335510254px) translate(0px, 0px);}100%{-webkit-transform: translate(70.98477935791016px, 35.95542335510254px) translate(-70.98477935791016px, -35.95542335510254px) translate(0px, 0px);transform: translate(70.98477935791016px, 35.95542335510254px) translate(-70.98477935791016px, -35.95542335510254px) translate(0px, 0px);}}@keyframes el_3vifsXKGL5_BvnssPpZK_Animation{0%{-webkit-transform: translate(70.98477935791016px, 35.95542335510254px) translate(-70.98477935791016px, -35.95542335510254px) translate(0px, -15px);transform: translate(70.98477935791016px, 35.95542335510254px) translate(-70.98477935791016px, -35.95542335510254px) translate(0px, -15px);}50%{-webkit-transform: translate(70.98477935791016px, 35.95542335510254px) translate(-70.98477935791016px, -35.95542335510254px) translate(0px, 0px);transform: translate(70.98477935791016px, 35.95542335510254px) translate(-70.98477935791016px, -35.95542335510254px) translate(0px, 0px);}100%{-webkit-transform: translate(70.98477935791016px, 35.95542335510254px) translate(-70.98477935791016px, -35.95542335510254px) translate(0px, 0px);transform: translate(70.98477935791016px, 35.95542335510254px) translate(-70.98477935791016px, -35.95542335510254px) translate(0px, 0px);}}#el_Oygzlk-sn *{-webkit-animation-duration: 3s;animation-duration: 3s;-webkit-animation-iteration-count: infinite;animation-iteration-count: infinite;-webkit-animation-timing-function: cubic-bezier(0, 0, 1, 1);animation-timing-function: cubic-bezier(0, 0, 1, 1);}#el_3vifsXKGL5{fill: #d9e021;-webkit-animation-name: el_3vifsXKGL5_Animation;animation-name: el_3vifsXKGL5_Animation;opacity: 0;}#el_JaGU6bOsob{fill: #d9e021;-webkit-animation-name: el_JaGU6bOsob_Animation;animation-name: el_JaGU6bOsob_Animation;opacity: 0;}#el_Yt0ZAp3y_I{fill: #d9e021;-webkit-animation-name: el_Yt0ZAp3y_I_Animation;animation-name: el_Yt0ZAp3y_I_Animation;opacity: 0;}#el_lieGfqqtPT{fill: #d9e021;-webkit-animation-name: el_lieGfqqtPT_Animation;animation-name: el_lieGfqqtPT_Animation;opacity: 0;}#el_zaC6a4nTUS{fill: none;}#el_3vifsXKGL5_BvnssPpZK{-webkit-animation-name: el_3vifsXKGL5_BvnssPpZK_Animation;animation-name: el_3vifsXKGL5_BvnssPpZK_Animation;-webkit-transform: translate(70.98477935791016px, 35.95542335510254px) translate(-70.98477935791016px, -35.95542335510254px) translate(0px, -15px);transform: translate(70.98477935791016px, 35.95542335510254px) translate(-70.98477935791016px, -35.95542335510254px) translate(0px, -15px);}#el_JaGU6bOsob_MWvbyUNZF{-webkit-animation-name: el_JaGU6bOsob_MWvbyUNZF_Animation;animation-name: el_JaGU6bOsob_MWvbyUNZF_Animation;-webkit-transform: translate(91.62761306762695px, 35.94018745422363px) translate(-91.62761306762695px, -35.94018745422363px) translate(0px, -15px);transform: translate(91.62761306762695px, 35.94018745422363px) translate(-91.62761306762695px, -35.94018745422363px) translate(0px, -15px);}#el_Yt0ZAp3y_I_qpXqywF5z{-webkit-animation-name: el_Yt0ZAp3y_I_qpXqywF5z_Animation;animation-name: el_Yt0ZAp3y_I_qpXqywF5z_Animation;-webkit-transform: translate(109.67023086547852px, 35.95551776885986px) translate(-109.67023086547852px, -35.95551776885986px) translate(0px, -15px);transform: translate(109.67023086547852px, 35.95551776885986px) translate(-109.67023086547852px, -35.95551776885986px) translate(0px, -15px);}#el_lieGfqqtPT_U9QQ-Hp57{-webkit-animation-name: el_lieGfqqtPT_U9QQ-Hp57_Animation;animation-name: el_lieGfqqtPT_U9QQ-Hp57_Animation;-webkit-transform: translate(130.3888931274414px, 36.00961208343506px) translate(-130.3888931274414px, -36.00961208343506px) translate(0px, -15px);transform: translate(130.3888931274414px, 36.00961208343506px) translate(-130.3888931274414px, -36.00961208343506px) translate(0px, -15px);}</style><defs/><title>menu_1</title><g id="el_P5LnWSe-vf" data-name="Layer 2"><g id="el_aVnEJrKiEW" data-name="Layer 1"><g id="el_3vifsXKGL5_BvnssPpZK" data-animator-group="true" data-animator-type="0"><path d="M80.09,26.42a1.79,1.79,0,0,1,.48,1.31V44.3a1.65,1.65,0,0,1-.45,1.23,1.59,1.59,0,0,1-1.18.45,1.48,1.48,0,0,1-1.14-.45,1.71,1.71,0,0,1-.42-1.23V32.77l-4.76,9a2.82,2.82,0,0,1-.73.91A1.48,1.48,0,0,1,71,43a1.59,1.59,0,0,1-.92-.28,2.71,2.71,0,0,1-.73-.93l-4.79-8.87V44.3a1.7,1.7,0,0,1-.43,1.22,1.51,1.51,0,0,1-1.16.46,1.49,1.49,0,0,1-1.15-.45,1.71,1.71,0,0,1-.42-1.23V27.73a1.82,1.82,0,0,1,.46-1.31,1.67,1.67,0,0,1,1.25-.49,1.9,1.9,0,0,1,1.71,1.21L71,39l6.19-11.84a1.86,1.86,0,0,1,1.65-1.21A1.71,1.71,0,0,1,80.09,26.42Z" id="el_3vifsXKGL5"/></g><g id="el_JaGU6bOsob_MWvbyUNZF" data-animator-group="true" data-animator-type="0"><path d="M85.31,45.37a1.71,1.71,0,0,1-.46-1.26V27.78a1.71,1.71,0,0,1,.46-1.26,1.77,1.77,0,0,1,1.28-.45H96.7a2,2,0,0,1,1.26.37,1.27,1.27,0,0,1,.44,1A1.35,1.35,0,0,1,98,28.55a1.91,1.91,0,0,1-1.26.38H88.38v5.43h7.76a1.91,1.91,0,0,1,1.26.37,1.47,1.47,0,0,1,0,2.1,2,2,0,0,1-1.26.36H88.38V43H96.7a1.86,1.86,0,0,1,1.26.38,1.34,1.34,0,0,1,.44,1.07,1.28,1.28,0,0,1-.44,1,2,2,0,0,1-1.26.36H86.59A1.81,1.81,0,0,1,85.31,45.37Z" id="el_JaGU6bOsob"/></g><g id="el_Yt0ZAp3y_I_qpXqywF5z" data-animator-group="true" data-animator-type="0"><path d="M117.54,26.42a1.82,1.82,0,0,1,.46,1.31V44.16a1.84,1.84,0,0,1-.47,1.32,1.64,1.64,0,0,1-1.23.5,1.61,1.61,0,0,1-1.38-.64L104.7,32V44.16a2,2,0,0,1-.44,1.32,1.78,1.78,0,0,1-2.47,0,1.92,1.92,0,0,1-.45-1.32V27.73a1.79,1.79,0,0,1,.48-1.31,1.71,1.71,0,0,1,1.26-.49,1.56,1.56,0,0,1,1.34.65l10.2,13.24V27.73a1.82,1.82,0,0,1,.46-1.31,1.62,1.62,0,0,1,1.22-.49A1.65,1.65,0,0,1,117.54,26.42Z" id="el_Yt0ZAp3y_I"/></g><g id="el_lieGfqqtPT_U9QQ-Hp57" data-animator-group="true" data-animator-type="0"><path d="M124.25,44q-2.1-2.1-2.1-6.14V27.73a1.83,1.83,0,0,1,.47-1.31,1.94,1.94,0,0,1,2.58,0,1.79,1.79,0,0,1,.48,1.31V38a5.5,5.5,0,0,0,1.2,3.85,5.39,5.39,0,0,0,7,0,5.52,5.52,0,0,0,1.2-3.84V27.73a1.79,1.79,0,0,1,.48-1.31,1.93,1.93,0,0,1,2.57,0,1.79,1.79,0,0,1,.48,1.31v10.1a8.32,8.32,0,0,1-2.1,6.12,8.27,8.27,0,0,1-6.13,2.12Q126.35,46.07,124.25,44Z" id="el_lieGfqqtPT"/></g><rect width="200" height="72" id="el_zaC6a4nTUS"/></g></g></svg>