<svg xmlns="http://www.w3.org/2000/svg" viewBox="0 0 512 512"><defs><style>.cls-1{fill:#abb2bf;}.cls-2{fill:#d9e021;}.cls-3{fill:#777d88;}.cls-4{fill:none;}</style></defs><title>produce</title><g id="Layer_2" data-name="Layer 2"><g id="Layer_1-2" data-name="Layer 1"><path class="cls-1" d="M62.37,104.3h39.92V343.46H62.37Zm79.84,239.16h39.92V104.3H142.21Zm267.49,0h39.92V104.3H409.7Z"/><path class="cls-2" d="M295.92,104.3a59.85,59.85,0,0,0-16,117.54l16-34.12,16,34.12a59.85,59.85,0,0,0-16-117.54Z"/><path class="cls-3" d="M333.5,492h28.56v20H150V492h28.53V460.19h20V492H313.53V460.19h20ZM495.55,369.42V417.2a26.19,26.19,0,0,1-26.19,26.18H42.63A26.19,26.19,0,0,1,16.45,417.2V389.37h0V84.59A26.2,26.2,0,0,1,42.64,58.4H95.85L122.25,0l26.4,58.4h23.51V7.78H363.22L413.83,58.4h55.53a26.22,26.22,0,0,1,26.19,26.19V369.42ZM369.07,58.4H385.6L369.07,41.86ZM122.25,48.46l-4.49,9.94h9Zm-85.84,321H475.59V84.59a6.19,6.19,0,0,0-1.84-4.4,6.11,6.11,0,0,0-4.39-1.83H419.69V343.47h-20V78.36H349.1V27.75h-157V343.47h-20V78.36h-20V343.47h-20V78.36h-20V343.47h-20V78.36H42.65a6.07,6.07,0,0,0-4.36,1.79,6.19,6.19,0,0,0-1.88,4.44Zm439.18,20H36.41V417.2a6.21,6.21,0,0,0,6.22,6.22H469.36a6.11,6.11,0,0,0,4.36-1.78,6.21,6.21,0,0,0,1.87-4.43ZM346.77,272.76H305.91V305H286V272.76H245.08l50.84-108.57Zm-70.3-20h38.9l-19.45-41.53Z"/><rect class="cls-4" width="512" height="512"/></g></g></svg>