<svg xmlns="http://www.w3.org/2000/svg" viewBox="0 0 550 400" id="el_xkR269zNd"><style>@-webkit-keyframes el_gxgy-2fB9N_75fFz_8mC_Animation{0%{-webkit-transform: translate(61.7568302154541px, 126.5294418334961px) scale(1, 1) translate(-61.7568302154541px, -126.5294418334961px);transform: translate(61.7568302154541px, 126.5294418334961px) scale(1, 1) translate(-61.7568302154541px, -126.5294418334961px);}44.17%{-webkit-transform: translate(61.7568302154541px, 126.5294418334961px) scale(0.6, 0.6) translate(-61.7568302154541px, -126.5294418334961px);transform: translate(61.7568302154541px, 126.5294418334961px) scale(0.6, 0.6) translate(-61.7568302154541px, -126.5294418334961px);}100%{-webkit-transform: translate(61.7568302154541px, 126.5294418334961px) scale(1, 1) translate(-61.7568302154541px, -126.5294418334961px);transform: translate(61.7568302154541px, 126.5294418334961px) scale(1, 1) translate(-61.7568302154541px, -126.5294418334961px);}}@keyframes el_gxgy-2fB9N_75fFz_8mC_Animation{0%{-webkit-transform: translate(61.7568302154541px, 126.5294418334961px) scale(1, 1) translate(-61.7568302154541px, -126.5294418334961px);transform: translate(61.7568302154541px, 126.5294418334961px) scale(1, 1) translate(-61.7568302154541px, -126.5294418334961px);}44.17%{-webkit-transform: translate(61.7568302154541px, 126.5294418334961px) scale(0.6, 0.6) translate(-61.7568302154541px, -126.5294418334961px);transform: translate(61.7568302154541px, 126.5294418334961px) scale(0.6, 0.6) translate(-61.7568302154541px, -126.5294418334961px);}100%{-webkit-transform: translate(61.7568302154541px, 126.5294418334961px) scale(1, 1) translate(-61.7568302154541px, -126.5294418334961px);transform: translate(61.7568302154541px, 126.5294418334961px) scale(1, 1) translate(-61.7568302154541px, -126.5294418334961px);}}@-webkit-keyframes el_rzlyG-uw-gZ_UURqgoW7i_Animation{0%{-webkit-transform: translate(477.06773376464844px, 221.07472229003906px) scale(1, 1) translate(-477.06773376464844px, -221.07472229003906px);transform: translate(477.06773376464844px, 221.07472229003906px) scale(1, 1) translate(-477.06773376464844px, -221.07472229003906px);}20%{-webkit-transform: translate(477.06773376464844px, 221.07472229003906px) scale(1.2, 1.2) translate(-477.06773376464844px, -221.07472229003906px);transform: translate(477.06773376464844px, 221.07472229003906px) scale(1.2, 1.2) translate(-477.06773376464844px, -221.07472229003906px);}55.00%{-webkit-transform: translate(477.06773376464844px, 221.07472229003906px) scale(1, 1) translate(-477.06773376464844px, -221.07472229003906px);transform: translate(477.06773376464844px, 221.07472229003906px) scale(1, 1) translate(-477.06773376464844px, -221.07472229003906px);}81.67%{-webkit-transform: translate(477.06773376464844px, 221.07472229003906px) scale(1.2, 1.2) translate(-477.06773376464844px, -221.07472229003906px);transform: translate(477.06773376464844px, 221.07472229003906px) scale(1.2, 1.2) translate(-477.06773376464844px, -221.07472229003906px);}100%{-webkit-transform: translate(477.06773376464844px, 221.07472229003906px) scale(1, 1) translate(-477.06773376464844px, -221.07472229003906px);transform: translate(477.06773376464844px, 221.07472229003906px) scale(1, 1) translate(-477.06773376464844px, -221.07472229003906px);}}@keyframes el_rzlyG-uw-gZ_UURqgoW7i_Animation{0%{-webkit-transform: translate(477.06773376464844px, 221.07472229003906px) scale(1, 1) translate(-477.06773376464844px, -221.07472229003906px);transform: translate(477.06773376464844px, 221.07472229003906px) scale(1, 1) translate(-477.06773376464844px, -221.07472229003906px);}20%{-webkit-transform: translate(477.06773376464844px, 221.07472229003906px) scale(1.2, 1.2) translate(-477.06773376464844px, -221.07472229003906px);transform: translate(477.06773376464844px, 221.07472229003906px) scale(1.2, 1.2) translate(-477.06773376464844px, -221.07472229003906px);}55.00%{-webkit-transform: translate(477.06773376464844px, 221.07472229003906px) scale(1, 1) translate(-477.06773376464844px, -221.07472229003906px);transform: translate(477.06773376464844px, 221.07472229003906px) scale(1, 1) translate(-477.06773376464844px, -221.07472229003906px);}81.67%{-webkit-transform: translate(477.06773376464844px, 221.07472229003906px) scale(1.2, 1.2) translate(-477.06773376464844px, -221.07472229003906px);transform: translate(477.06773376464844px, 221.07472229003906px) scale(1.2, 1.2) translate(-477.06773376464844px, -221.07472229003906px);}100%{-webkit-transform: translate(477.06773376464844px, 221.07472229003906px) scale(1, 1) translate(-477.06773376464844px, -221.07472229003906px);transform: translate(477.06773376464844px, 221.07472229003906px) scale(1, 1) translate(-477.06773376464844px, -221.07472229003906px);}}@-webkit-keyframes el_bOio6Z8pP8_X92JGGuz2O_Animation{0%{-webkit-transform: translate(463.9939270019531px, 49.11706793308258px) scale(0.7, 0.7) translate(-463.9939270019531px, -49.11706793308258px);transform: translate(463.9939270019531px, 49.11706793308258px) scale(0.7, 0.7) translate(-463.9939270019531px, -49.11706793308258px);}34.17%{-webkit-transform: translate(463.9939270019531px, 49.11706793308258px) scale(1, 1) translate(-463.9939270019531px, -49.11706793308258px);transform: translate(463.9939270019531px, 49.11706793308258px) scale(1, 1) translate(-463.9939270019531px, -49.11706793308258px);}100%{-webkit-transform: translate(463.9939270019531px, 49.11706793308258px) scale(0.7, 0.7) translate(-463.9939270019531px, -49.11706793308258px);transform: translate(463.9939270019531px, 49.11706793308258px) scale(0.7, 0.7) translate(-463.9939270019531px, -49.11706793308258px);}}@keyframes el_bOio6Z8pP8_X92JGGuz2O_Animation{0%{-webkit-transform: translate(463.9939270019531px, 49.11706793308258px) scale(0.7, 0.7) translate(-463.9939270019531px, -49.11706793308258px);transform: translate(463.9939270019531px, 49.11706793308258px) scale(0.7, 0.7) translate(-463.9939270019531px, -49.11706793308258px);}34.17%{-webkit-transform: translate(463.9939270019531px, 49.11706793308258px) scale(1, 1) translate(-463.9939270019531px, -49.11706793308258px);transform: translate(463.9939270019531px, 49.11706793308258px) scale(1, 1) translate(-463.9939270019531px, -49.11706793308258px);}100%{-webkit-transform: translate(463.9939270019531px, 49.11706793308258px) scale(0.7, 0.7) translate(-463.9939270019531px, -49.11706793308258px);transform: translate(463.9939270019531px, 49.11706793308258px) scale(0.7, 0.7) translate(-463.9939270019531px, -49.11706793308258px);}}@-webkit-keyframes el_yhZ7SlKvTKS_-2Zz2WJiW_Animation{0%{-webkit-transform: translate(325.3450164794922px, 208.3900146484375px) rotate(0deg) translate(-325.3450164794922px, -208.3900146484375px);transform: translate(325.3450164794922px, 208.3900146484375px) rotate(0deg) translate(-325.3450164794922px, -208.3900146484375px);}100%{-webkit-transform: translate(325.3450164794922px, 208.3900146484375px) rotate(-360deg) translate(-325.3450164794922px, -208.3900146484375px);transform: translate(325.3450164794922px, 208.3900146484375px) rotate(-360deg) translate(-325.3450164794922px, -208.3900146484375px);}}@keyframes el_yhZ7SlKvTKS_-2Zz2WJiW_Animation{0%{-webkit-transform: translate(325.3450164794922px, 208.3900146484375px) rotate(0deg) translate(-325.3450164794922px, -208.3900146484375px);transform: translate(325.3450164794922px, 208.3900146484375px) rotate(0deg) translate(-325.3450164794922px, -208.3900146484375px);}100%{-webkit-transform: translate(325.3450164794922px, 208.3900146484375px) rotate(-360deg) translate(-325.3450164794922px, -208.3900146484375px);transform: translate(325.3450164794922px, 208.3900146484375px) rotate(-360deg) translate(-325.3450164794922px, -208.3900146484375px);}}@-webkit-keyframes el_RB9Ah2W1eKM_SntqJjplm_Animation{0%{-webkit-transform: translate(281.60498809814453px, 164.12997436523438px) rotate(0deg) translate(-281.60498809814453px, -164.12997436523438px);transform: translate(281.60498809814453px, 164.12997436523438px) rotate(0deg) translate(-281.60498809814453px, -164.12997436523438px);}100%{-webkit-transform: translate(281.60498809814453px, 164.12997436523438px) rotate(360deg) translate(-281.60498809814453px, -164.12997436523438px);transform: translate(281.60498809814453px, 164.12997436523438px) rotate(360deg) translate(-281.60498809814453px, -164.12997436523438px);}}@keyframes el_RB9Ah2W1eKM_SntqJjplm_Animation{0%{-webkit-transform: translate(281.60498809814453px, 164.12997436523438px) rotate(0deg) translate(-281.60498809814453px, -164.12997436523438px);transform: translate(281.60498809814453px, 164.12997436523438px) rotate(0deg) translate(-281.60498809814453px, -164.12997436523438px);}100%{-webkit-transform: translate(281.60498809814453px, 164.12997436523438px) rotate(360deg) translate(-281.60498809814453px, -164.12997436523438px);transform: translate(281.60498809814453px, 164.12997436523438px) rotate(360deg) translate(-281.60498809814453px, -164.12997436523438px);}}@-webkit-keyframes el_WXoPej-sxFQ_glVyYGi6b_Animation{0%{-webkit-transform: translate(232.0199737548828px, 114.79499435424805px) rotate(0deg) translate(-232.0199737548828px, -114.79499435424805px);transform: translate(232.0199737548828px, 114.79499435424805px) rotate(0deg) translate(-232.0199737548828px, -114.79499435424805px);}100%{-webkit-transform: translate(232.0199737548828px, 114.79499435424805px) rotate(-360deg) translate(-232.0199737548828px, -114.79499435424805px);transform: translate(232.0199737548828px, 114.79499435424805px) rotate(-360deg) translate(-232.0199737548828px, -114.79499435424805px);}}@keyframes el_WXoPej-sxFQ_glVyYGi6b_Animation{0%{-webkit-transform: translate(232.0199737548828px, 114.79499435424805px) rotate(0deg) translate(-232.0199737548828px, -114.79499435424805px);transform: translate(232.0199737548828px, 114.79499435424805px) rotate(0deg) translate(-232.0199737548828px, -114.79499435424805px);}100%{-webkit-transform: translate(232.0199737548828px, 114.79499435424805px) rotate(-360deg) translate(-232.0199737548828px, -114.79499435424805px);transform: translate(232.0199737548828px, 114.79499435424805px) rotate(-360deg) translate(-232.0199737548828px, -114.79499435424805px);}}#el_xkR269zNd *{-webkit-animation-duration: 4s;animation-duration: 4s;-webkit-animation-iteration-count: infinite;animation-iteration-count: infinite;-webkit-animation-timing-function: cubic-bezier(0, 0, 1, 1);animation-timing-function: cubic-bezier(0, 0, 1, 1);}#el_gxgy-2fB9N{fill: #abb2bf;}#el_bOio6Z8pP8{fill: #abb2bf;}#el_YCKUfBWuho{fill: #0c1119;-webkit-transform: translate(550px, 312.48px) rotate(180deg);transform: translate(550px, 312.48px) rotate(180deg);}#el_GxMhsA6YDr{fill: #21252b;}#el_fFR9dJGXDC{fill: #dde4f1;}#el_Ax4jxuIWsv{fill: #abb2bf;}#el_pobuAJOIg_{fill: #dde4f1;}#el_l2ZCSFJRLx{fill: #2c313c;}#el_rzlyG-uw-gZ{fill: #dde4f1;}#el_RB9Ah2W1eKM{fill: #d9e021;}#el_WXoPej-sxFQ{fill: #a5aa00;}#el_yhZ7SlKvTKS{fill: #a5aa00;}#el_BBRbQBZVo1B{fill: none;}#el_WXoPej-sxFQ_glVyYGi6b{-webkit-animation-name: el_WXoPej-sxFQ_glVyYGi6b_Animation;animation-name: el_WXoPej-sxFQ_glVyYGi6b_Animation;-webkit-transform: translate(232.0199737548828px, 114.79499435424805px) rotate(0deg) translate(-232.0199737548828px, -114.79499435424805px);transform: translate(232.0199737548828px, 114.79499435424805px) rotate(0deg) translate(-232.0199737548828px, -114.79499435424805px);}#el_RB9Ah2W1eKM_SntqJjplm{-webkit-transform: translate(281.60498809814453px, 164.12997436523438px) rotate(0deg) translate(-281.60498809814453px, -164.12997436523438px);transform: translate(281.60498809814453px, 164.12997436523438px) rotate(0deg) translate(-281.60498809814453px, -164.12997436523438px);-webkit-animation-name: el_RB9Ah2W1eKM_SntqJjplm_Animation;animation-name: el_RB9Ah2W1eKM_SntqJjplm_Animation;}#el_yhZ7SlKvTKS_-2Zz2WJiW{-webkit-animation-name: el_yhZ7SlKvTKS_-2Zz2WJiW_Animation;animation-name: el_yhZ7SlKvTKS_-2Zz2WJiW_Animation;-webkit-transform: translate(325.3450164794922px, 208.3900146484375px) rotate(0deg) translate(-325.3450164794922px, -208.3900146484375px);transform: translate(325.3450164794922px, 208.3900146484375px) rotate(0deg) translate(-325.3450164794922px, -208.3900146484375px);}#el_bOio6Z8pP8_X92JGGuz2O{-webkit-animation-name: el_bOio6Z8pP8_X92JGGuz2O_Animation;animation-name: el_bOio6Z8pP8_X92JGGuz2O_Animation;-webkit-transform: translate(463.9939270019531px, 49.11706793308258px) scale(0.7, 0.7) translate(-463.9939270019531px, -49.11706793308258px);transform: translate(463.9939270019531px, 49.11706793308258px) scale(0.7, 0.7) translate(-463.9939270019531px, -49.11706793308258px);}#el_rzlyG-uw-gZ_UURqgoW7i{-webkit-animation-name: el_rzlyG-uw-gZ_UURqgoW7i_Animation;animation-name: el_rzlyG-uw-gZ_UURqgoW7i_Animation;-webkit-transform: translate(477.06773376464844px, 221.07472229003906px) scale(1, 1) translate(-477.06773376464844px, -221.07472229003906px);transform: translate(477.06773376464844px, 221.07472229003906px) scale(1, 1) translate(-477.06773376464844px, -221.07472229003906px);}#el_gxgy-2fB9N_75fFz_8mC{-webkit-animation-name: el_gxgy-2fB9N_75fFz_8mC_Animation;animation-name: el_gxgy-2fB9N_75fFz_8mC_Animation;-webkit-transform: translate(61.7568302154541px, 126.5294418334961px) scale(1, 1) translate(-61.7568302154541px, -126.5294418334961px);transform: translate(61.7568302154541px, 126.5294418334961px) scale(1, 1) translate(-61.7568302154541px, -126.5294418334961px);}</style><defs/><title>screen</title><g id="el_8iSpgveomg" data-name="Layer 2"><g id="el_jUNHcSErmL" data-name="Layer 1"><g id="el_S-FQjchrNC" data-name="el Hyxbitkzya7 Bkrjyf1aQ"><g id="el_uQLIkgXDbo" data-name="el Hyxbitkzya7"><g id="el_gxgy-2fB9N_75fFz_8mC" data-animator-group="true" data-animator-type="2"><path d="M108.36,131.08a13.94,13.94,0,0,0-12.49-20.24,19.83,19.83,0,0,0-35.41-7.67,22.95,22.95,0,0,0-38.58,15.65A19.85,19.85,0,0,0,26.47,158H102.8a14,14,0,0,0,5.56-26.92Z" id="el_gxgy-2fB9N"/></g></g></g><g id="el_3qFRtUDjoa" data-name="el Bk0xst1fyaX BkSpJMyp7"><g id="el_IuBtZ31qg4" data-name="el Bk0xst1fyaX"><g id="el_bOio6Z8pP8_X92JGGuz2O" data-animator-group="true" data-animator-type="2"><path d="M536.51,56.15a21.76,21.76,0,0,0-19.32-31.43,30.8,30.8,0,0,0-55-11.88,35.48,35.48,0,0,0-59.87,24.3A30.8,30.8,0,0,0,409.41,98H528a21.79,21.79,0,0,0,8.65-41.78Z" id="el_bOio6Z8pP8"/></g></g></g><path d="M60.33,27.92H489.67a0,0,0,0,1,0,0V272.57a12,12,0,0,1-12,12H72.33a12,12,0,0,1-12-12V27.92A0,0,0,0,1,60.33,27.92Z" id="el_YCKUfBWuho"/><ellipse cx="275" cy="367.34" rx="84.44" ry="4.74" id="el_GxMhsA6YDr"/><path d="M60.33,285H489.67a0,0,0,0,1,0,0v28.75a12,12,0,0,1-12,12H72.33a12,12,0,0,1-12-12V285A0,0,0,0,1,60.33,285Z" id="el_fFR9dJGXDC"/><path d="M317.22,325.71H232.78s-4,37.57-12.22,37.57H329.44C321.22,363.28,317.22,325.71,317.22,325.71Z" id="el_Ax4jxuIWsv"/><rect x="212.04" y="362.91" width="125.93" height="3.7" rx="0.5" id="el_pobuAJOIg_"/><circle cx="275" cy="42" r="2" id="el_l2ZCSFJRLx"/><g id="el_vnlK6axcoF" data-name="el Hy1bst1MJaQ BkoAkGJ6X"><g id="el_VmUm3EkXQf-" data-name="el Hy1bst1MJaQ"><g id="el_rzlyG-uw-gZ_UURqgoW7i" data-animator-group="true" data-animator-type="2"><path d="M520.66,225.32a12.79,12.79,0,0,0,1.42-5.82A13.12,13.12,0,0,0,509,206.38a18.58,18.58,0,0,0-33.17-7.15,21.48,21.48,0,0,0-36.1,14.65A18.58,18.58,0,0,0,444,250.52h71.49a13.13,13.13,0,0,0,5.17-25.2Z" id="el_rzlyG-uw-gZ"/></g></g></g><g id="el_RB9Ah2W1eKM_SntqJjplm" data-animator-group="true" data-animator-type="1"><path d="M325.35,156.49h-5.66a40.3,40.3,0,0,0-1.65-5.81l4.74-2.73a2.39,2.39,0,0,0,.87-3.25l-4.75-8.21a2.37,2.37,0,0,0-3.24-.87l-4.93,2.84a37.9,37.9,0,0,0-4.3-4.2l2.74-4.74a2.39,2.39,0,0,0-.88-3.25l-8.21-4.75a2.38,2.38,0,0,0-3.24.87L294,127.31a39.32,39.32,0,0,0-5.84-1.48v-5.48a2.37,2.37,0,0,0-2.37-2.37H276.3a2.37,2.37,0,0,0-2.39,2.37V126a39.47,39.47,0,0,0-5.79,1.64l-2.73-4.74a2.37,2.37,0,0,0-3.25-.87l-8.23,4.75a2.38,2.38,0,0,0-.86,3.24l2.84,4.92a38.77,38.77,0,0,0-4.19,4.31L247,136.53a2.38,2.38,0,0,0-3.25.87L239,145.62a2.37,2.37,0,0,0,.88,3.24l4.91,2.84a38.1,38.1,0,0,0-1.47,5.84h-5.48a2.38,2.38,0,0,0-2.38,2.38v9.49a2.38,2.38,0,0,0,2.38,2.37h5.67a39.22,39.22,0,0,0,1.63,5.8l-4.74,2.74a2.37,2.37,0,0,0-.86,3.23l4.74,8.23a2.38,2.38,0,0,0,3.24.86l4.93-2.83a38,38,0,0,0,4.31,4.2L254,198.75a2.36,2.36,0,0,0,.87,3.24l8.22,4.75a2.37,2.37,0,0,0,3.24-.87l2.84-4.91a39.48,39.48,0,0,0,5.83,1.47v5.49a2.37,2.37,0,0,0,2.38,2.36h9.49a2.37,2.37,0,0,0,2.38-2.37v-5.68a39.09,39.09,0,0,0,5.79-1.63l2.74,4.74a2.38,2.38,0,0,0,3.24.87l8.22-4.76a2.37,2.37,0,0,0,.87-3.24l-2.84-4.92a37.18,37.18,0,0,0,4.2-4.31l4.75,2.75a2.37,2.37,0,0,0,3.24-.88l4.75-8.22a2.38,2.38,0,0,0-.87-3.24l-4.91-2.84a38.86,38.86,0,0,0,1.47-5.83h5.48a2.37,2.37,0,0,0,2.37-2.38v-9.49A2.36,2.36,0,0,0,325.35,156.49Zm-43.78,32.27a24.63,24.63,0,1,1,24.63-24.63A24.63,24.63,0,0,1,281.57,188.76Z" id="el_RB9Ah2W1eKM"/></g><g id="el_WXoPej-sxFQ_glVyYGi6b" data-animator-group="true" data-animator-type="1"><path d="M250.52,111.14h-3.06a1.93,1.93,0,0,1-1.7-1.22l-.57-1.39a1.94,1.94,0,0,1,.33-2.07l2.17-2.16a1.29,1.29,0,0,0,0-1.82l-3.35-3.35a1.27,1.27,0,0,0-1.82,0l-2.17,2.16a1.92,1.92,0,0,1-2.07.34l-1.38-.58a1.9,1.9,0,0,1-1.22-1.7V96.29a1.3,1.3,0,0,0-1.3-1.29h-4.73a1.3,1.3,0,0,0-1.29,1.29v3.06a1.9,1.9,0,0,1-1.22,1.7l-1.38.58a1.92,1.92,0,0,1-2.07-.34l-2.17-2.16a1.27,1.27,0,0,0-1.82,0l-3.35,3.35a1.29,1.29,0,0,0,0,1.82l2.17,2.16a1.92,1.92,0,0,1,.33,2.07l-.57,1.39a1.94,1.94,0,0,1-1.7,1.22h-3.07a1.29,1.29,0,0,0-1.28,1.29v4.73a1.29,1.29,0,0,0,1.28,1.29h3.07a2,2,0,0,1,1.7,1.23l.57,1.39a1.9,1.9,0,0,1-.33,2.06l-2.17,2.17a1.29,1.29,0,0,0,0,1.82l3.35,3.35a1.29,1.29,0,0,0,1.82,0l2.17-2.16a1.9,1.9,0,0,1,2.07-.34l1.38.57a1.93,1.93,0,0,1,1.22,1.7v3.06a1.29,1.29,0,0,0,1.29,1.29h4.73a1.3,1.3,0,0,0,1.3-1.29v-3.06a1.93,1.93,0,0,1,1.22-1.7l1.38-.57a1.9,1.9,0,0,1,2.07.34l2.17,2.16a1.29,1.29,0,0,0,1.82,0l3.35-3.35a1.29,1.29,0,0,0,0-1.82l-2.17-2.17a1.92,1.92,0,0,1-.33-2.06l.57-1.39a1.94,1.94,0,0,1,1.7-1.23h3.06a1.29,1.29,0,0,0,1.29-1.29v-4.73A1.29,1.29,0,0,0,250.52,111.14ZM232,121a6.24,6.24,0,1,1,6.24-6.24A6.24,6.24,0,0,1,232,121Z" id="el_WXoPej-sxFQ"/></g><g id="el_yhZ7SlKvTKS_-2Zz2WJiW" data-animator-group="true" data-animator-type="1"><path d="M337,206.09H335a1.21,1.21,0,0,1-1.06-.77l-.36-.87a1.2,1.2,0,0,1,.21-1.3l1.36-1.35a.83.83,0,0,0,0-1.15l-2.1-2.09a.81.81,0,0,0-1.15,0l-1.35,1.35a1.2,1.2,0,0,1-1.3.21l-.87-.36a1.2,1.2,0,0,1-.76-1.06v-1.92a.81.81,0,0,0-.81-.81h-3a.81.81,0,0,0-.8.81v1.92a1.21,1.21,0,0,1-.77,1.06l-.87.36a1.2,1.2,0,0,1-1.3-.21l-1.35-1.35a.81.81,0,0,0-1.15,0l-2.09,2.09a.81.81,0,0,0,0,1.15l1.35,1.35a1.2,1.2,0,0,1,.21,1.3l-.35.87a1.21,1.21,0,0,1-1.07.77h-1.92a.81.81,0,0,0-.81.8v3a.82.82,0,0,0,.81.81h1.92a1.2,1.2,0,0,1,1.07.76l.35.87a1.2,1.2,0,0,1-.21,1.3L315.55,215a.81.81,0,0,0,0,1.15l2.09,2.1a.83.83,0,0,0,1.15,0l1.35-1.36a1.2,1.2,0,0,1,1.3-.21l.87.35a1.23,1.23,0,0,1,.77,1.07V220a.8.8,0,0,0,.8.81h3a.81.81,0,0,0,.81-.81v-1.92a1.22,1.22,0,0,1,.76-1.07l.87-.35a1.2,1.2,0,0,1,1.3.21l1.35,1.36a.83.83,0,0,0,1.15,0l2.1-2.1a.83.83,0,0,0,0-1.15l-1.36-1.35a1.2,1.2,0,0,1-.21-1.3l.36-.87a1.2,1.2,0,0,1,1.06-.76H337a.81.81,0,0,0,.8-.81v-3A.8.8,0,0,0,337,206.09Zm-11.6,6.19a3.91,3.91,0,1,1,3.91-3.9A3.91,3.91,0,0,1,325.37,212.28Z" id="el_yhZ7SlKvTKS"/></g><rect width="550" height="400" id="el_BBRbQBZVo1B"/></g></g></svg>