<svg xmlns="http://www.w3.org/2000/svg" viewBox="0 0 512 512"><defs><style>.cls-1{fill:#abb2bf;}.cls-2{fill:#d9e021;}.cls-3{fill:#777d88;}.cls-4{fill:none;}</style></defs><title>service</title><g id="Layer_2" data-name="Layer 2"><g id="Layer_1-2" data-name="Layer 1"><path class="cls-1" d="M59,96.59v260.1h50.25c0-.3,0-.6,0-.91a146.75,146.75,0,0,1,293.5,0c0,.31,0,.61,0,.91H453V96.59Z"/><path class="cls-2" d="M256,233.54V337.45a18.35,18.35,0,0,1,18.32,18.33h104A122.26,122.26,0,0,0,256,233.54Z"/><path class="cls-3" d="M19.25,0V396.46H59V377.53H38.19V75.78H473.81V377.53H453v18.93h39.78V0ZM38.19,18.94H473.81V56.82H38.19ZM59,28.42H78V47.35H59Zm37.88,0h18.94V47.35H96.91Zm37.87,0h18.94V47.35H134.78ZM265.47,199.91v-3.53h8.86a27.8,27.8,0,1,0,0-55.6H237.67a27.8,27.8,0,1,0,0,55.6h8.86v3.53c-81.74,4.91-146.75,72.94-146.75,155.87C99.78,441.92,169.86,512,256,512s156.22-70.08,156.22-156.22C412.22,272.85,347.22,204.82,265.47,199.91Zm-27.8-22.46a8.87,8.87,0,1,1,0-17.73h36.66a8.88,8.88,0,0,1,6.28,15.14,8.78,8.78,0,0,1-6.28,2.59h-8.86v-8.87H246.53v8.87ZM256,493.06c-75.7,0-137.28-61.58-137.28-137.28S180.31,218.55,256,218.55s137.28,61.56,137.28,137.23S331.69,493.06,256,493.06ZM383.28,235.85v-.47l-6.89-6.9-7.15-6.69,6.7,6.69-8.61,8.62-13.41-13.37,8.62-8.63a19.27,19.27,0,0,1,27.31.05l6.83,6.84a19.16,19.16,0,0,1,0,27.25l-8.56,8.61-13.42-13.36Zm-254.6-.47L122,242.53l6.7-6.7,8.64,8.64-13.39,13.4-8.64-8.64a19.18,19.18,0,0,1,0-27.23l6.92-6.91a19.27,19.27,0,0,1,27.23,0l8.65,8.63L144.7,237.12l-8.65-8.64,0,0-.44,0Zm188.1,34.06L300.36,260l8.52-14.81,16.42,9.44Zm-51.31-18.79H246.53v-17.1h18.94Zm-70.26,18.84-8.57-14.82L203,245.18,211.6,260Zm-35,41.95-14.83-8.52,9.44-16.42L169.64,295Zm-9.35,53.82H133.73V346.32h17.12Zm9.32,34.92,9.48,16.4-14.83,8.57-9.48-16.4Zm35,41.93,16.4,9.48L203,466.42l-16.39-9.48ZM246.53,461h18.94v17.14H246.53Zm70.26-18.82L325.3,457l-16.43,9.43-8.51-14.83Zm35-41.95,14.89,8.57-9.46,16.42L342.3,416.6Zm9.41-53.86H378.3v18.94H361.16ZM342.32,295l14.88-8.52,9.4,16.44-14.87,8.52Zm-21.48,70.28V346.32H282.13a27.82,27.82,0,1,0,0,18.94ZM256,364.68a8.88,8.88,0,1,1,8.85-8.9A8.89,8.89,0,0,1,256,364.68Z"/><rect class="cls-4" width="512" height="512"/></g></g></svg>