<svg xmlns="http://www.w3.org/2000/svg" viewBox="0 0 250 250"><defs><style>.cls-1{fill:#dde4f1;}.cls-2{fill:#abb2bf;}.cls-3{fill:#282c34;}.cls-4{fill:#21252b;}.cls-5{fill:#d9e021;}.cls-6{fill:#fff;}.cls-7{fill:#0c1119;}.cls-8{fill:none;}</style></defs><title>web</title><g id="Layer_2" data-name="Layer 2"><g id="Layer_3" data-name="Layer 3"><rect class="cls-1" x="2.98" y="16.05" width="151.58" height="111.64" rx="6.73"/><path class="cls-2" d="M147.83,16.53a6.26,6.26,0,0,1,6.25,6.25V121a6.26,6.26,0,0,1-6.25,6.25H9.72A6.25,6.25,0,0,1,3.47,121V22.78a6.25,6.25,0,0,1,6.25-6.25H147.83m0-1H9.72A7.22,7.22,0,0,0,2.5,22.78V121a7.22,7.22,0,0,0,7.22,7.22H147.83a7.22,7.22,0,0,0,7.22-7.22V22.78a7.22,7.22,0,0,0-7.22-7.22Z"/><rect class="cls-3" x="10.69" y="34.57" width="33.15" height="2.99"/><rect class="cls-3" x="122.78" y="34.57" width="21.06" height="2.99"/><rect class="cls-3" x="96.19" y="34.57" width="21.07" height="2.99"/><rect class="cls-3" x="69.62" y="34.57" width="21.06" height="2.99"/><rect class="cls-2" x="10.69" y="48.9" width="59.95" height="65.99"/><path class="cls-4" d="M71.45,115.69H9.89V48.09H71.45v67.6ZM11.5,114.08H69.84V49.7H11.5v64.38Z"/><path class="cls-4" d="M70.64,115.69H10.69a.81.81,0,0,1-.73-.48.78.78,0,0,1,.14-.86l60-66a.77.77,0,0,1,.88-.21.8.8,0,0,1,.52.75v66a.8.8,0,0,1-.81.8Zm-58.13-1.61H69.84V51l-57.33,63.1Z"/><path class="cls-4" d="M70.64,115.69H10.69a.8.8,0,0,1-.8-.8v-66a.79.79,0,0,1,.51-.75.8.8,0,0,1,.89.21l60,66a.8.8,0,0,1,.14.86.81.81,0,0,1-.74.48ZM11.5,114.08H68.82L11.5,51v63.1Z"/><rect class="cls-3" x="79.42" y="50.15" width="35.57" height="4.85"/><rect class="cls-2" x="79.42" y="62.5" width="64.29" height="2.99"/><rect class="cls-2" x="79.42" y="71.67" width="54.63" height="2.99"/><rect class="cls-2" x="79.42" y="80.84" width="60.54" height="2.99"/><rect class="cls-2" x="79.42" y="90.01" width="47.12" height="2.99"/><rect class="cls-5" x="79.42" y="101.64" width="20.81" height="8.73"/><rect class="cls-1" x="82.91" y="104.51" width="13.83" height="2.99"/><path class="cls-2" d="M150.7,15.56H6.85A4.35,4.35,0,0,0,2.5,19.91v8.23H155.05V19.91A4.35,4.35,0,0,0,150.7,15.56Z"/><path class="cls-6" d="M11.39,22A2.43,2.43,0,1,1,9,19.56,2.42,2.42,0,0,1,11.39,22Z"/><path class="cls-6" d="M18.18,22a2.43,2.43,0,1,1-2.43-2.43A2.42,2.42,0,0,1,18.18,22Z"/><path class="cls-6" d="M25,22a2.42,2.42,0,1,1-2.42-2.43A2.42,2.42,0,0,1,25,22Z"/><rect class="cls-6" x="31.75" y="19.81" width="116.96" height="4.36"/><path class="cls-7" d="M93.51,46.74c-1.69,5.46-9.68,9.72-19.66,10.4v1.3H95.5a2.07,2.07,0,1,1,0,1.22H73.85V61c10,.68,18,4.94,19.66,10.4a69.93,69.93,0,0,1,11-2,71.46,71.46,0,0,1,11.13-.26,63.31,63.31,0,0,1-.78-10.09A64.65,64.65,0,0,1,115.68,49a71.36,71.36,0,0,1-11.12-.26A69.93,69.93,0,0,1,93.51,46.74Z"/><path class="cls-4" d="M212.18,67.68c19.14,0,19.14-17.25,0-17.25l-96.5-1.3V69Z"/><rect class="cls-5" x="112.68" y="48.78" width="3.02" height="20.55"/><path class="cls-7" d="M166.54,71.42h71c5.5,0,10-4,10-9V56.17c0-5-4.46-9-10-9h-71Z"/><path class="cls-2" d="M236.29,48.38a8.1,8.1,0,0,0-8.1-8.1h-54c.92,2.89,3.75,5.24,6.31,5.24a3,3,0,0,0,2.75-1.5h45a4.36,4.36,0,0,1,4.36,4.36V72.66s0,0,0,.07,0,0,0,.07A19.61,19.61,0,0,1,213,92.39H82.87a13,13,0,0,0,0,26.09h25.62l.23,0h24.52a4.3,4.3,0,0,1,0,8.6H108.7a13.05,13.05,0,0,0-12.94,13v44.42a1.87,1.87,0,1,0,3.73,0V140.14a9.31,9.31,0,0,1,9.24-9.3h24.51a8,8,0,0,0,0-16.08h-5.72l-.23,0H82.87a9.31,9.31,0,1,1,0-18.61H213A23.36,23.36,0,0,0,236.29,72.8s0,0,0-.07,0,0,0-.07Z"/><rect class="cls-7" x="36.19" y="162.83" width="162.47" height="71.61"/><rect class="cls-4" x="36.19" y="160.66" width="162.47" height="71.61"/><rect class="cls-7" x="48.24" y="174.71" width="11.46" height="11.46"/><rect class="cls-7" x="64.1" y="174.71" width="11.46" height="11.46"/><rect class="cls-7" x="79.97" y="174.71" width="11.46" height="11.46"/><rect class="cls-7" x="95.84" y="174.71" width="11.46" height="11.46"/><rect class="cls-7" x="111.7" y="174.71" width="11.46" height="11.46"/><rect class="cls-7" x="127.57" y="174.71" width="11.45" height="11.46"/><rect class="cls-7" x="143.43" y="174.71" width="11.46" height="11.46"/><rect class="cls-7" x="159.3" y="174.71" width="11.46" height="11.46"/><rect class="cls-7" x="175.17" y="174.71" width="11.46" height="11.46"/><rect class="cls-7" x="48.24" y="190.53" width="11.46" height="11.46"/><rect class="cls-7" x="64.1" y="190.53" width="11.46" height="11.46"/><rect class="cls-7" x="79.97" y="190.53" width="11.46" height="11.46"/><rect class="cls-7" x="95.84" y="190.53" width="11.46" height="11.46"/><rect class="cls-7" x="111.7" y="190.53" width="11.46" height="11.46"/><rect class="cls-7" x="127.57" y="190.53" width="11.45" height="11.46"/><rect class="cls-7" x="143.43" y="190.53" width="11.46" height="11.46"/><rect class="cls-7" x="159.3" y="190.53" width="11.46" height="11.46"/><rect class="cls-7" x="175.17" y="190.53" width="11.46" height="11.46"/><rect class="cls-7" x="48.24" y="206.35" width="11.46" height="11.46"/><polygon class="cls-7" points="134.28 206.35 127.57 206.35 64.1 206.35 64.1 217.81 127.57 217.81 134.28 217.81 139.02 217.81 139.02 206.35 134.28 206.35"/><rect class="cls-7" x="143.43" y="206.35" width="11.46" height="11.46"/><rect class="cls-7" x="159.3" y="206.35" width="11.46" height="11.46"/><rect class="cls-7" x="175.17" y="206.35" width="11.46" height="11.46"/><rect class="cls-2" x="48.24" y="172.74" width="11.46" height="11.46"/><rect class="cls-2" x="64.1" y="172.74" width="11.46" height="11.46"/><rect class="cls-2" x="79.97" y="172.74" width="11.46" height="11.46"/><rect class="cls-2" x="95.84" y="172.74" width="11.46" height="11.46"/><rect class="cls-2" x="111.7" y="172.74" width="11.46" height="11.46"/><rect class="cls-2" x="127.57" y="172.74" width="11.45" height="11.46"/><rect class="cls-2" x="143.43" y="172.74" width="11.46" height="11.46"/><rect class="cls-2" x="159.3" y="172.74" width="11.46" height="11.46"/><rect class="cls-2" x="175.17" y="172.74" width="11.46" height="11.46"/><rect class="cls-2" x="48.24" y="188.56" width="11.46" height="11.46"/><rect class="cls-2" x="64.1" y="188.56" width="11.46" height="11.46"/><rect class="cls-2" x="79.97" y="188.56" width="11.46" height="11.46"/><rect class="cls-2" x="95.84" y="188.56" width="11.46" height="11.46"/><rect class="cls-2" x="111.7" y="188.56" width="11.46" height="11.46"/><rect class="cls-2" x="127.57" y="188.56" width="11.45" height="11.46"/><rect class="cls-2" x="143.43" y="188.56" width="11.46" height="11.46"/><rect class="cls-2" x="159.3" y="188.56" width="11.46" height="11.46"/><rect class="cls-2" x="175.17" y="188.56" width="11.46" height="11.46"/><rect class="cls-2" x="48.24" y="204.38" width="11.46" height="11.46"/><polygon class="cls-2" points="134.28 204.38 127.57 204.38 64.1 204.38 64.1 215.84 127.57 215.84 134.28 215.84 139.02 215.84 139.02 204.38 134.28 204.38"/><rect class="cls-2" x="143.43" y="204.38" width="11.46" height="11.46"/><rect class="cls-2" x="159.3" y="204.38" width="11.46" height="11.46"/><rect class="cls-2" x="175.17" y="204.38" width="11.46" height="11.46"/><rect class="cls-8" width="250" height="250"/></g></g></svg>