<svg xmlns="http://www.w3.org/2000/svg" viewBox="0 0 250 250" id="el_fGUnIjLTx"><style>@-webkit-keyframes el_IF608uw8ri_Animation{0%{opacity: 1;}50%{opacity: 0;}100%{opacity: 1;}}@keyframes el_IF608uw8ri_Animation{0%{opacity: 1;}50%{opacity: 0;}100%{opacity: 1;}}@-webkit-keyframes el_Q6rm2GCGrE_QtEmqyHKt_Animation{0%{-webkit-transform: translate(71.91048622131348px, 74.42544746398926px) rotate(0deg) translate(-71.91048622131348px, -74.42544746398926px);transform: translate(71.91048622131348px, 74.42544746398926px) rotate(0deg) translate(-71.91048622131348px, -74.42544746398926px);}100%{-webkit-transform: translate(71.91048622131348px, 74.42544746398926px) rotate(-360deg) translate(-71.91048622131348px, -74.42544746398926px);transform: translate(71.91048622131348px, 74.42544746398926px) rotate(-360deg) translate(-71.91048622131348px, -74.42544746398926px);}}@keyframes el_Q6rm2GCGrE_QtEmqyHKt_Animation{0%{-webkit-transform: translate(71.91048622131348px, 74.42544746398926px) rotate(0deg) translate(-71.91048622131348px, -74.42544746398926px);transform: translate(71.91048622131348px, 74.42544746398926px) rotate(0deg) translate(-71.91048622131348px, -74.42544746398926px);}100%{-webkit-transform: translate(71.91048622131348px, 74.42544746398926px) rotate(-360deg) translate(-71.91048622131348px, -74.42544746398926px);transform: translate(71.91048622131348px, 74.42544746398926px) rotate(-360deg) translate(-71.91048622131348px, -74.42544746398926px);}}@-webkit-keyframes el_KaPZenwSTd_GCn7yN0n7_Animation{0%{-webkit-transform: translate(115.11978530883789px, 82.80498886108398px) rotate(0deg) translate(-115.11978530883789px, -82.80498886108398px);transform: translate(115.11978530883789px, 82.80498886108398px) rotate(0deg) translate(-115.11978530883789px, -82.80498886108398px);}100%{-webkit-transform: translate(115.11978530883789px, 82.80498886108398px) rotate(-360deg) translate(-115.11978530883789px, -82.80498886108398px);transform: translate(115.11978530883789px, 82.80498886108398px) rotate(-360deg) translate(-115.11978530883789px, -82.80498886108398px);}}@keyframes el_KaPZenwSTd_GCn7yN0n7_Animation{0%{-webkit-transform: translate(115.11978530883789px, 82.80498886108398px) rotate(0deg) translate(-115.11978530883789px, -82.80498886108398px);transform: translate(115.11978530883789px, 82.80498886108398px) rotate(0deg) translate(-115.11978530883789px, -82.80498886108398px);}100%{-webkit-transform: translate(115.11978530883789px, 82.80498886108398px) rotate(-360deg) translate(-115.11978530883789px, -82.80498886108398px);transform: translate(115.11978530883789px, 82.80498886108398px) rotate(-360deg) translate(-115.11978530883789px, -82.80498886108398px);}}@-webkit-keyframes el_2F2fsERZ_H_Rhua8pt8B_Animation{0%{-webkit-transform: translate(157.539794921875px, 138.73001861572266px) rotate(0deg) translate(-157.539794921875px, -138.73001861572266px);transform: translate(157.539794921875px, 138.73001861572266px) rotate(0deg) translate(-157.539794921875px, -138.73001861572266px);}100%{-webkit-transform: translate(157.539794921875px, 138.73001861572266px) rotate(360deg) translate(-157.539794921875px, -138.73001861572266px);transform: translate(157.539794921875px, 138.73001861572266px) rotate(360deg) translate(-157.539794921875px, -138.73001861572266px);}}@keyframes el_2F2fsERZ_H_Rhua8pt8B_Animation{0%{-webkit-transform: translate(157.539794921875px, 138.73001861572266px) rotate(0deg) translate(-157.539794921875px, -138.73001861572266px);transform: translate(157.539794921875px, 138.73001861572266px) rotate(0deg) translate(-157.539794921875px, -138.73001861572266px);}100%{-webkit-transform: translate(157.539794921875px, 138.73001861572266px) rotate(360deg) translate(-157.539794921875px, -138.73001861572266px);transform: translate(157.539794921875px, 138.73001861572266px) rotate(360deg) translate(-157.539794921875px, -138.73001861572266px);}}@-webkit-keyframes el_B6irTLeSy-_XGONbXCBJ_Animation{0%{-webkit-transform: translate(117.97499465942383px, 121.40999603271484px) rotate(0deg) translate(-117.97499465942383px, -121.40999603271484px);transform: translate(117.97499465942383px, 121.40999603271484px) rotate(0deg) translate(-117.97499465942383px, -121.40999603271484px);}100%{-webkit-transform: translate(117.97499465942383px, 121.40999603271484px) rotate(-360deg) translate(-117.97499465942383px, -121.40999603271484px);transform: translate(117.97499465942383px, 121.40999603271484px) rotate(-360deg) translate(-117.97499465942383px, -121.40999603271484px);}}@keyframes el_B6irTLeSy-_XGONbXCBJ_Animation{0%{-webkit-transform: translate(117.97499465942383px, 121.40999603271484px) rotate(0deg) translate(-117.97499465942383px, -121.40999603271484px);transform: translate(117.97499465942383px, 121.40999603271484px) rotate(0deg) translate(-117.97499465942383px, -121.40999603271484px);}100%{-webkit-transform: translate(117.97499465942383px, 121.40999603271484px) rotate(-360deg) translate(-117.97499465942383px, -121.40999603271484px);transform: translate(117.97499465942383px, 121.40999603271484px) rotate(-360deg) translate(-117.97499465942383px, -121.40999603271484px);}}@-webkit-keyframes el_eTciZR6usgL_sDOy6JytX_Animation{0%{-webkit-transform: translate(159.28470993041992px, 90.80463790893555px) rotate(0deg) translate(-159.28470993041992px, -90.80463790893555px);transform: translate(159.28470993041992px, 90.80463790893555px) rotate(0deg) translate(-159.28470993041992px, -90.80463790893555px);}100%{-webkit-transform: translate(159.28470993041992px, 90.80463790893555px) rotate(360deg) translate(-159.28470993041992px, -90.80463790893555px);transform: translate(159.28470993041992px, 90.80463790893555px) rotate(360deg) translate(-159.28470993041992px, -90.80463790893555px);}}@keyframes el_eTciZR6usgL_sDOy6JytX_Animation{0%{-webkit-transform: translate(159.28470993041992px, 90.80463790893555px) rotate(0deg) translate(-159.28470993041992px, -90.80463790893555px);transform: translate(159.28470993041992px, 90.80463790893555px) rotate(0deg) translate(-159.28470993041992px, -90.80463790893555px);}100%{-webkit-transform: translate(159.28470993041992px, 90.80463790893555px) rotate(360deg) translate(-159.28470993041992px, -90.80463790893555px);transform: translate(159.28470993041992px, 90.80463790893555px) rotate(360deg) translate(-159.28470993041992px, -90.80463790893555px);}}#el_fGUnIjLTx *{-webkit-animation-duration: 3s;animation-duration: 3s;-webkit-animation-iteration-count: infinite;animation-iteration-count: infinite;-webkit-animation-timing-function: cubic-bezier(0, 0, 1, 1);animation-timing-function: cubic-bezier(0, 0, 1, 1);}#el_KzMY-l0L8W{fill: none;}#el_qnv1Oj3AJM{fill: #abb2bf;}#el_A85mVy3eFK{fill: #dde4f1;}#el_gMRyIW6Tx0{fill: #dde4f1;}#el_fqZDZkwD58{fill: #0c1119;}#el_IF608uw8ri{fill: #282c34;-webkit-animation-name: el_IF608uw8ri_Animation;animation-name: el_IF608uw8ri_Animation;}#el_h6liY8y5kd{fill: #21252b;}#el_B6irTLeSy-{fill: #0c1119;}#el_ChxBjEooxZ{fill: #21252b;}#el_Bha-spQGFr{fill: #21252b;}#el_Q6rm2GCGrE{fill: #abb2bf;}#el_KaPZenwSTd{fill: #d9e021;}#el_2F2fsERZ_H{fill: #d9e021;}#el_60jIZX65id9{fill: #abb2bf;}#el_eTciZR6usgL{fill: #abb2bf;}#el_7VFhN74DgCh{fill: #282c34;}#el_P5_Y1zNPgqB{fill: #dde4f1;}#el_ER4rjgzlwO1{fill: #dde4f1;}#el_p47qr6rdCwW{fill: #dde4f1;}#el_tl-5A6Aoz_L{fill: #dde4f1;}#el_83uAdY88aXZ{fill: #dde4f1;}#el_K2N4DDVad68{fill: #dde4f1;}#el_KoLJibuCu8K{fill: #dde4f1;}#el_eTciZR6usgL_sDOy6JytX{-webkit-animation-name: el_eTciZR6usgL_sDOy6JytX_Animation;animation-name: el_eTciZR6usgL_sDOy6JytX_Animation;}#el_B6irTLeSy-_XGONbXCBJ{-webkit-animation-name: el_B6irTLeSy-_XGONbXCBJ_Animation;animation-name: el_B6irTLeSy-_XGONbXCBJ_Animation;}#el_2F2fsERZ_H_Rhua8pt8B{-webkit-animation-name: el_2F2fsERZ_H_Rhua8pt8B_Animation;animation-name: el_2F2fsERZ_H_Rhua8pt8B_Animation;}#el_KaPZenwSTd_GCn7yN0n7{-webkit-animation-name: el_KaPZenwSTd_GCn7yN0n7_Animation;animation-name: el_KaPZenwSTd_GCn7yN0n7_Animation;}#el_Q6rm2GCGrE_QtEmqyHKt{-webkit-animation-name: el_Q6rm2GCGrE_QtEmqyHKt_Animation;animation-name: el_Q6rm2GCGrE_QtEmqyHKt_Animation;}</style><defs/><title>webdev</title><g id="el_f84Hfm1Dwc" data-name="Layer 2"><g id="el_KRnTGrtP6o" data-name="Layer 3"><rect width="250" height="250" id="el_KzMY-l0L8W"/><path d="M96.73,189.22,89,220.74h72q-3.85-15.77-7.71-31.52Z" id="el_qnv1Oj3AJM"/><path d="M165.42,220.18H84.58c-2.06,0-3.72,2-3.72,4.37v1.63h88.28v-1.63C169.14,222.14,167.47,220.18,165.42,220.18Z" id="el_A85mVy3eFK"/><path d="M3.43,177v17.38a6,6,0,0,0,6.05,6h231a6,6,0,0,0,6-6V177Z" id="el_gMRyIW6Tx0"/><path d="M246.57,177V29.87a6,6,0,0,0-6-6.05H9.48a6,6,0,0,0-6.05,6.05V177Z" id="el_fqZDZkwD58"/><rect x="13.39" y="33.27" width="223.22" height="133.64" id="el_IF608uw8ri"/><polygon points="13.39 166.91 236.61 33.27 236.61 166.91 13.39 166.91" id="el_h6liY8y5kd"/><g id="el_B6irTLeSy-_XGONbXCBJ" data-animator-group="true" data-animator-type="1"><path d="M144.85,115.11a.32.32,0,0,0-.37-.25l-2,.4A24.71,24.71,0,0,0,140.5,110l1.8-1.09a.32.32,0,0,0,.11-.44l-1.32-2.18a.32.32,0,0,0-.44-.11l-1.76,1.07a25,25,0,0,0-3.62-4.24l1.32-1.64a.32.32,0,0,0-.05-.45l-2-1.6a.33.33,0,0,0-.45,0L132.81,101A25.47,25.47,0,0,0,128,98.27l.68-2a.33.33,0,0,0-.2-.41L126,95.05a.33.33,0,0,0-.41.2l-.66,2a25.31,25.31,0,0,0-5.5-.93l0-2.1a.32.32,0,0,0-.32-.31l-2.55.06a.3.3,0,0,0-.31.32l0,2.07a23.73,23.73,0,0,0-3.1.41c-.81.16-1.61.36-2.38.59l-.76-2a.33.33,0,0,0-.42-.18l-2.37.93a.3.3,0,0,0-.18.41l.74,1.92a24.77,24.77,0,0,0-4.81,2.82l-1.38-1.58a.33.33,0,0,0-.45,0l-1.92,1.68a.32.32,0,0,0,0,.45l1.36,1.56a25.21,25.21,0,0,0-3.55,4.3l-1.85-1a.32.32,0,0,0-.43.13L93.51,109a.32.32,0,0,0,.13.43l1.81,1a25.23,25.23,0,0,0-1.87,5.25l-2.08-.32a.32.32,0,0,0-.36.27l-.39,2.52a.32.32,0,0,0,.26.36l2,.31a24.82,24.82,0,0,0,0,5.58l-2.07.41a.33.33,0,0,0-.25.38l.5,2.5a.32.32,0,0,0,.37.25l2-.4a25.86,25.86,0,0,0,2,5.22l-1.79,1.09a.32.32,0,0,0-.11.44L95,136.44a.32.32,0,0,0,.44.11l1.75-1.07a25.47,25.47,0,0,0,3.63,4.24l-1.32,1.64a.32.32,0,0,0,0,.45l2,1.59a.31.31,0,0,0,.44,0l1.3-1.61a25.47,25.47,0,0,0,4.85,2.75l-.68,2a.32.32,0,0,0,.2.41l2.41.82a.34.34,0,0,0,.41-.2l.66-2a25.31,25.31,0,0,0,5.5.93l0,2.09a.32.32,0,0,0,.32.32l2.55-.06a.32.32,0,0,0,.31-.32l0-2.07a23.73,23.73,0,0,0,3.1-.41,23,23,0,0,0,2.38-.6l.76,2a.33.33,0,0,0,.42.19l2.37-.93a.3.3,0,0,0,.18-.41l-.74-1.92a25.6,25.6,0,0,0,4.81-2.82l1.38,1.58a.33.33,0,0,0,.45,0l1.92-1.68a.33.33,0,0,0,0-.45l-1.36-1.56a25.21,25.21,0,0,0,3.55-4.3l1.84,1a.33.33,0,0,0,.44-.13l1.22-2.23a.31.31,0,0,0-.12-.43l-1.81-1a25.43,25.43,0,0,0,1.87-5.25l2.08.32a.33.33,0,0,0,.36-.27l.39-2.52a.32.32,0,0,0-.27-.36l-2-.31a25.42,25.42,0,0,0-.05-5.58l2.07-.41a.33.33,0,0,0,.25-.38Zm-25.57,12.4a6.24,6.24,0,1,1,4.91-7.34A6.24,6.24,0,0,1,119.28,127.51Z" id="el_B6irTLeSy-"/></g><path d="M131.86,118.77a14,14,0,0,1-26.61,8.37,14.5,14.5,0,0,1-1-3.14,14,14,0,0,1,26.61-8.37,13.48,13.48,0,0,1,1,3.14Zm-26.79,5.08a13.56,13.56,0,0,0,.93,3,13.23,13.23,0,0,0,25.06-7.89,13.34,13.34,0,0,0-.94-3,13.22,13.22,0,0,0-25.05,7.88Z" id="el_ChxBjEooxZ"/><path d="M135,118.18a17.19,17.19,0,0,1-32.56,10.25,17.31,17.31,0,0,1-1.21-3.84,17.19,17.19,0,0,1,32.56-10.25,17.31,17.31,0,0,1,1.21,3.84Zm-32.18,6.11a15.74,15.74,0,0,0,1.1,3.47,15.57,15.57,0,0,0,29.49-9.28,15.74,15.74,0,0,0-1.1-3.47,15.56,15.56,0,0,0-29.49,9.28Z" id="el_Bha-spQGFr"/><g id="el_Q6rm2GCGrE_QtEmqyHKt" data-animator-group="true" data-animator-type="1"><path d="M63.9,62.59l.75,1.67a12.72,12.72,0,0,0-1.49,1.24l-1.42-1a.77.77,0,0,0-1.07.18l-1.78,2.47a.77.77,0,0,0,.17,1.07l1.48,1.07a11.51,11.51,0,0,0-.66,1.81l-1.75-.18a.77.77,0,0,0-.84.69l-.31,3a.77.77,0,0,0,.68.84l1.82.18a12.51,12.51,0,0,0,.33,1.91l-1.61.72a.77.77,0,0,0-.38,1l1.25,2.78a.77.77,0,0,0,1,.39l1.67-.75A11.71,11.71,0,0,0,63,83.17L62,84.6a.77.77,0,0,0,.17,1.07l2.48,1.78a.75.75,0,0,0,1.06-.17l1.07-1.48a13.19,13.19,0,0,0,1.82.66l-.18,1.75a.77.77,0,0,0,.68.84l3,.31a.77.77,0,0,0,.84-.68l.18-1.82a11.31,11.31,0,0,0,1.9-.34l.73,1.61a.75.75,0,0,0,1,.38l2.78-1.25a.76.76,0,0,0,.38-1l-.74-1.66a12.62,12.62,0,0,0,1.48-1.24l1.43,1a.77.77,0,0,0,1.06-.17l1.79-2.48a.77.77,0,0,0-.18-1.07L83.28,79.6A13.24,13.24,0,0,0,84,77.78L85.7,78a.78.78,0,0,0,.84-.69l.3-3a.76.76,0,0,0-.68-.84l-1.81-.18A13.9,13.9,0,0,0,84,71.31l1.61-.72a.77.77,0,0,0,.38-1L84.75,66.8a.76.76,0,0,0-1-.39l-1.66.75a11.85,11.85,0,0,0-1.24-1.48l1-1.43a.77.77,0,0,0-.17-1.07L79.21,61.4a.76.76,0,0,0-1.06.17l-1.07,1.49a11.94,11.94,0,0,0-1.81-.67l.17-1.75a.76.76,0,0,0-.68-.84l-3-.31a.77.77,0,0,0-.83.68L70.7,62a12.6,12.6,0,0,0-1.9.33l-.72-1.6a.76.76,0,0,0-1-.38l-2.79,1.25A.76.76,0,0,0,63.9,62.59Zm12.91,9.63a5.37,5.37,0,1,1-7.1-2.69A5.36,5.36,0,0,1,76.81,72.22Z" id="el_Q6rm2GCGrE"/></g><g id="el_KaPZenwSTd_GCn7yN0n7" data-animator-group="true" data-animator-type="1"><path d="M109.82,75.36l.61,1.35a1,1,0,0,1-.2,1l-.5.52a.93.93,0,0,1-1,.26L107.37,78a.61.61,0,0,0-.8.36l-.82,2.13a.63.63,0,0,0,.36.81l1.39.53a.91.91,0,0,1,.55.84l0,.72a1,1,0,0,1-.51.88l-1.35.6a.63.63,0,0,0-.31.83l.93,2.09a.64.64,0,0,0,.83.31l1.35-.61a.93.93,0,0,1,1,.21l.53.49a1,1,0,0,1,.26,1l-.53,1.39a.62.62,0,0,0,.36.8l2.14.81a.63.63,0,0,0,.81-.36l.52-1.38a1,1,0,0,1,.85-.56l.72,0a.92.92,0,0,1,.88.5l.6,1.35A.64.64,0,0,0,118,92l2.08-.94a.64.64,0,0,0,.32-.83l-.61-1.35a.93.93,0,0,1,.2-1l.5-.52a.91.91,0,0,1,1-.26l1.38.52a.62.62,0,0,0,.8-.36l.82-2.14a.62.62,0,0,0-.36-.8l-1.39-.53a.91.91,0,0,1-.55-.84l0-.73a.93.93,0,0,1,.51-.87l1.35-.61a.62.62,0,0,0,.31-.82l-.93-2.09a.63.63,0,0,0-.83-.31l-1.35.6a.93.93,0,0,1-1-.2l-.53-.5a.93.93,0,0,1-.26-1l.53-1.39a.62.62,0,0,0-.36-.8l-2.14-.81a.63.63,0,0,0-.81.36l-.52,1.38a.93.93,0,0,1-.85.56l-.72,0a.91.91,0,0,1-.88-.51l-.6-1.35a.63.63,0,0,0-.83-.31l-2.08.94A.62.62,0,0,0,109.82,75.36Zm8,6.2a3,3,0,1,1-4-1.52A3,3,0,0,1,117.85,81.56Z" id="el_KaPZenwSTd"/></g><g id="el_2F2fsERZ_H_Rhua8pt8B" data-animator-group="true" data-animator-type="1"><path d="M152.28,131.28l.61,1.35a1,1,0,0,1-.2,1l-.5.52a1,1,0,0,1-1,.26l-1.38-.52a.61.61,0,0,0-.8.36l-.82,2.13a.63.63,0,0,0,.36.81l1.39.52a.92.92,0,0,1,.55.85l0,.72a1,1,0,0,1-.51.88l-1.35.6a.63.63,0,0,0-.31.83l.94,2.09a.62.62,0,0,0,.82.31l1.35-.61a.91.91,0,0,1,1,.21l.53.49a1,1,0,0,1,.26,1l-.53,1.38a.64.64,0,0,0,.36.81l2.14.81a.63.63,0,0,0,.81-.36l.52-1.39a.93.93,0,0,1,.85-.55l.72,0a.92.92,0,0,1,.88.5l.6,1.35a.63.63,0,0,0,.83.31l2.08-.93a.63.63,0,0,0,.32-.83l-.61-1.35a.93.93,0,0,1,.2-1l.5-.53a1,1,0,0,1,1-.26l1.38.53a.63.63,0,0,0,.81-.36l.81-2.14a.62.62,0,0,0-.36-.8l-1.38-.53a.9.9,0,0,1-.56-.85l0-.72a.93.93,0,0,1,.51-.87l1.35-.61a.63.63,0,0,0,.31-.83l-.93-2.08a.64.64,0,0,0-.83-.32l-1.35.61a.93.93,0,0,1-1-.2l-.53-.5a.94.94,0,0,1-.26-1l.53-1.38a.62.62,0,0,0-.36-.8l-2.14-.81a.63.63,0,0,0-.81.36l-.52,1.38a.93.93,0,0,1-.85.56l-.72,0a.9.9,0,0,1-.87-.51l-.61-1.35a.63.63,0,0,0-.83-.31l-2.08.94A.62.62,0,0,0,152.28,131.28Zm8,6.2a3,3,0,1,1-4-1.52A3,3,0,0,1,160.31,137.48Z" id="el_2F2fsERZ_H"/></g><path d="M176.93,82.88a19.37,19.37,0,0,0-36.7,11.55,20.18,20.18,0,0,0,1.37,4.33,19.37,19.37,0,0,0,36.69-11.55A19.61,19.61,0,0,0,176.93,82.88Zm-13.2,17.87a10.89,10.89,0,1,1,5.47-14.39A10.89,10.89,0,0,1,163.73,100.75Z" id="el_60jIZX65id9"/><g id="el_eTciZR6usgL_sDOy6JytX" data-animator-group="true" data-animator-type="1"><path d="M191.48,88.51l-4.1-.42a29.31,29.31,0,0,0-.77-4.31l3.64-1.63a1.72,1.72,0,0,0,.86-2.28l-2.82-6.29a1.74,1.74,0,0,0-2.29-.87l-3.75,1.69A29.42,29.42,0,0,0,179.44,71l2.32-3.22a1.73,1.73,0,0,0-.39-2.41l-5.6-4a1.73,1.73,0,0,0-2.41.39L171,65.12a28.48,28.48,0,0,0-4.11-1.51l.41-4a1.73,1.73,0,0,0-1.55-1.89l-6.86-.69A1.73,1.73,0,0,0,157,58.6l-.42,4.11a27.89,27.89,0,0,0-4.3.76l-1.63-3.63a1.73,1.73,0,0,0-2.29-.87L142,61.8a1.72,1.72,0,0,0-.86,2.28l1.68,3.75a30.45,30.45,0,0,0-3.35,2.82l-3.22-2.33a1.74,1.74,0,0,0-2.42.4l-4,5.59a1.73,1.73,0,0,0,.39,2.41l3.35,2.42a28.32,28.32,0,0,0-1.5,4.1l-4-.4a1.72,1.72,0,0,0-1.89,1.54l-.7,6.86a1.73,1.73,0,0,0,1.54,1.89l4.11.42a26.86,26.86,0,0,0,.76,4.31l-3.64,1.63a1.73,1.73,0,0,0-.87,2.28l2.83,6.29a1.72,1.72,0,0,0,2.28.87l3.76-1.69a29.42,29.42,0,0,0,2.81,3.36l-2.32,3.21a1.74,1.74,0,0,0,.39,2.42l5.6,4a1.72,1.72,0,0,0,2.4-.4l2.42-3.35a26.14,26.14,0,0,0,4.1,1.5l-.4,4a1.75,1.75,0,0,0,1.55,1.9l6.86.7a1.74,1.74,0,0,0,1.89-1.55l.41-4.1a28,28,0,0,0,4.31-.76l1.63,3.63a1.74,1.74,0,0,0,2.29.87l6.28-2.83a1.72,1.72,0,0,0,.87-2.28l-1.69-3.76A27.63,27.63,0,0,0,179,111l3.22,2.33a1.74,1.74,0,0,0,2.41-.39l4-5.6a1.74,1.74,0,0,0-.39-2.41L185,102.51a28.88,28.88,0,0,0,1.5-4.11l4,.4a1.71,1.71,0,0,0,1.89-1.54l.7-6.87A1.72,1.72,0,0,0,191.48,88.51Zm-23,22.76A22.45,22.45,0,0,1,138.82,100a21.77,21.77,0,0,1-1.58-5,22.42,22.42,0,1,1,31.21,16.27Z" id="el_eTciZR6usgL"/></g><path d="M122,119.62a4.31,4.31,0,1,1-5.71-2.17A4.31,4.31,0,0,1,122,119.62Z" id="el_7VFhN74DgCh"/><path d="M176.85,87.48a17.9,17.9,0,0,1-33.91,10.67,17.63,17.63,0,0,1-1.26-4,17.9,17.9,0,0,1,33.91-10.68,18.4,18.4,0,0,1,1.26,4ZM142.49,94a16.77,16.77,0,0,0,1.2,3.82A17.08,17.08,0,0,0,176,87.63a17.37,17.37,0,0,0-1.2-3.81A17.07,17.07,0,0,0,142.49,94Z" id="el_P5_Y1zNPgqB"/><path d="M79.61,73a7.83,7.83,0,1,1-.55-1.75A7.8,7.8,0,0,1,79.61,73ZM65,75.73a7.15,7.15,0,0,0,.49,1.57,7,7,0,0,0,13.3-4.18,7.18,7.18,0,0,0-.5-1.57A7,7,0,0,0,65,75.73Z" id="el_ER4rjgzlwO1"/><path d="M111,128.2a.44.44,0,0,1-.13.39.41.41,0,0,1-.58,0L66.35,80a.41.41,0,0,1,0-.58.42.42,0,0,1,.59,0L110.88,128a.44.44,0,0,1,.1.19Z" id="el_p47qr6rdCwW"/><path d="M126.13,114.79a.45.45,0,0,1-.11.36.41.41,0,0,1-.58,0L75.85,68.49a.41.41,0,0,1,0-.58.4.4,0,0,1,.58,0L126,114.56a.45.45,0,0,1,.13.23Z" id="el_tl-5A6Aoz_L"/><path d="M128.47,119.41a10.59,10.59,0,0,1-20.06,6.31,10.3,10.3,0,0,1-.75-2.36,10.59,10.59,0,0,1,20.06-6.31,11,11,0,0,1,.75,2.36Zm-19.8,3.76a9.56,9.56,0,0,0,18.78-3.57,9.56,9.56,0,0,0-18.78,3.57Z" id="el_83uAdY88aXZ"/><path d="M168.75,105.69a.4.4,0,0,1-.2.44L123,130.77a.41.41,0,0,1-.56-.16.42.42,0,0,1,.17-.56l45.55-24.64a.41.41,0,0,1,.56.17.21.21,0,0,1,0,.11Z" id="el_K2N4DDVad68"/><path d="M147.7,78.06a.43.43,0,0,1-.12.37l-35.5,35.47a.41.41,0,1,1-.58-.58L147,77.84a.41.41,0,0,1,.58,0,.4.4,0,0,1,.12.22Z" id="el_KoLJibuCu8K"/></g></g></svg>